<?xml version='1.0' encoding='UTF-8' standalone='no'?>
<svg width="1438pt" xmlns:xlink="http://www.w3.org/1999/xlink" xmlns="http://www.w3.org/2000/svg" height="728pt" viewBox="0 0 1438 728">
 <title>gl2ps_renderer figure</title>
 <desc>
Creator: GL2PS 1.4.2, (C) 1999-2020 C. Geuzaine
For: Octave
CreationDate: Tue May 30 12:49:23 2023
</desc>
 <defs/>
 <polygon fill="#ffffff" points="0,0 1438,0 1438,728 0,728"/>
 <g>
  <polygon shape-rendering="crispEdges" fill="#ffffff" points="0,728 1438,728 1438,0 0,0"/>
  <clipPath id="cp001438728">
   <polygon points="0,728 1438,728 1438,0 0,0"/>
  </clipPath>
  <g clip-path="url(#cp001438728)">
   <polygon shape-rendering="crispEdges" fill="#ffffff" points="186.947,648.624 1301.52,648.624 1301.52,54.6594 186.947,54.6594"/>
   <polyline fill="none" points="186.947,648.624 186.947,643.052" stroke-linecap="butt" stroke="#262626" stroke-width="0.5" stroke-linejoin="miter"/>
   <polyline fill="none" points="186.947,54.6594 186.947,60.2317" stroke-linecap="butt" stroke="#262626" stroke-width="0.5" stroke-linejoin="miter"/>
   <polyline fill="none" points="465.393,648.624 465.393,643.052" stroke-linecap="butt" stroke="#262626" stroke-width="0.5" stroke-linejoin="miter"/>
   <polyline fill="none" points="465.393,54.6594 465.393,60.2317" stroke-linecap="butt" stroke="#262626" stroke-width="0.5" stroke-linejoin="miter"/>
   <polyline fill="none" points="743.839,648.624 743.839,643.052" stroke-linecap="butt" stroke="#262626" stroke-width="0.5" stroke-linejoin="miter"/>
   <polyline fill="none" points="743.839,54.6594 743.839,60.2317" stroke-linecap="butt" stroke="#262626" stroke-width="0.5" stroke-linejoin="miter"/>
   <polyline fill="none" points="1022.28,648.624 1022.28,643.052" stroke-linecap="butt" stroke="#262626" stroke-width="0.5" stroke-linejoin="miter"/>
   <polyline fill="none" points="1022.28,54.6594 1022.28,60.2317" stroke-linecap="butt" stroke="#262626" stroke-width="0.5" stroke-linejoin="miter"/>
   <polyline fill="none" points="1301.52,648.624 1301.52,643.052" stroke-linecap="butt" stroke="#262626" stroke-width="0.5" stroke-linejoin="miter"/>
   <polyline fill="none" points="1301.52,54.6594 1301.52,60.2317" stroke-linecap="butt" stroke="#262626" stroke-width="0.5" stroke-linejoin="miter"/>
   <text font-style="normal" transform="translate(168.954,673.623) rotate(-0,18,-13)" font-family="FreeSans" font-size="16" font-weight="normal" xml:space="preserve">
    <tspan fill="rgb(38,38,38)" x="0 9 18 27 " y="-0">1989</tspan>
   </text>
   <text font-style="normal" transform="translate(447.397,673.623) rotate(-0,18,-13)" font-family="FreeSans" font-size="16" font-weight="normal" xml:space="preserve">
    <tspan fill="rgb(38,38,38)" x="0 9 18 27 " y="-0">1990</tspan>
   </text>
   <text font-style="normal" transform="translate(725.839,673.623) rotate(-0,18,-13)" font-family="FreeSans" font-size="16" font-weight="normal" xml:space="preserve">
    <tspan fill="rgb(38,38,38)" x="0 9 18 27 " y="-0">1991</tspan>
   </text>
   <text font-style="normal" transform="translate(1004.28,673.623) rotate(-0,18,-13)" font-family="FreeSans" font-size="16" font-weight="normal" xml:space="preserve">
    <tspan fill="rgb(38,38,38)" x="0 9 18 27 " y="-0">1992</tspan>
   </text>
   <text font-style="normal" transform="translate(1283.49,673.623) rotate(-0,18,-13)" font-family="FreeSans" font-size="16" font-weight="normal" xml:space="preserve">
    <tspan fill="rgb(38,38,38)" x="0 9 18 27 " y="-0">1993</tspan>
   </text>
   <polyline fill="none" points="186.947,648.624 192.564,648.624" stroke-linecap="butt" stroke="#262626" stroke-width="0.5" stroke-linejoin="miter"/>
   <polyline fill="none" points="1301.52,648.624 1295.9,648.624" stroke-linecap="butt" stroke="#262626" stroke-width="0.5" stroke-linejoin="miter"/>
   <polyline fill="none" points="186.947,549.63 192.564,549.63" stroke-linecap="butt" stroke="#262626" stroke-width="0.5" stroke-linejoin="miter"/>
   <polyline fill="none" points="1301.52,549.63 1295.9,549.63" stroke-linecap="butt" stroke="#262626" stroke-width="0.5" stroke-linejoin="miter"/>
   <polyline fill="none" points="186.947,450.636 192.564,450.636" stroke-linecap="butt" stroke="#262626" stroke-width="0.5" stroke-linejoin="miter"/>
   <polyline fill="none" points="1301.52,450.636 1295.9,450.636" stroke-linecap="butt" stroke="#262626" stroke-width="0.5" stroke-linejoin="miter"/>
   <polyline fill="none" points="186.947,351.642 192.564,351.642" stroke-linecap="butt" stroke="#262626" stroke-width="0.5" stroke-linejoin="miter"/>
   <polyline fill="none" points="1301.52,351.642 1295.9,351.642" stroke-linecap="butt" stroke="#262626" stroke-width="0.5" stroke-linejoin="miter"/>
   <polyline fill="none" points="186.947,252.648 192.564,252.648" stroke-linecap="butt" stroke="#262626" stroke-width="0.5" stroke-linejoin="miter"/>
   <polyline fill="none" points="1301.52,252.648 1295.9,252.648" stroke-linecap="butt" stroke="#262626" stroke-width="0.5" stroke-linejoin="miter"/>
   <polyline fill="none" points="186.947,153.653 192.564,153.653" stroke-linecap="butt" stroke="#262626" stroke-width="0.5" stroke-linejoin="miter"/>
   <polyline fill="none" points="1301.52,153.653 1295.9,153.653" stroke-linecap="butt" stroke="#262626" stroke-width="0.5" stroke-linejoin="miter"/>
   <polyline fill="none" points="186.947,54.6594 192.564,54.6594" stroke-linecap="butt" stroke="#262626" stroke-width="0.5" stroke-linejoin="miter"/>
   <polyline fill="none" points="1301.52,54.6594 1295.9,54.6594" stroke-linecap="butt" stroke="#262626" stroke-width="0.5" stroke-linejoin="miter"/>
   <text font-style="normal" transform="translate(169.957,655.124) rotate(-0,9,-6.5)" font-family="FreeSans" font-size="16" font-weight="normal" xml:space="preserve">
    <tspan fill="rgb(38,38,38)" x="0 " y="-0">0</tspan>
   </text>
   <text font-style="normal" transform="translate(160.957,556.13) rotate(-0,18,-6.5)" font-family="FreeSans" font-size="16" font-weight="normal" xml:space="preserve">
    <tspan fill="rgb(38,38,38)" x="0 9 " y="-0">10</tspan>
   </text>
   <text font-style="normal" transform="translate(160.957,457.136) rotate(-0,18,-6.5)" font-family="FreeSans" font-size="16" font-weight="normal" xml:space="preserve">
    <tspan fill="rgb(38,38,38)" x="0 9 " y="-0">20</tspan>
   </text>
   <text font-style="normal" transform="translate(160.957,358.142) rotate(-0,18,-6.5)" font-family="FreeSans" font-size="16" font-weight="normal" xml:space="preserve">
    <tspan fill="rgb(38,38,38)" x="0 9 " y="-0">30</tspan>
   </text>
   <text font-style="normal" transform="translate(160.957,259.148) rotate(-0,18,-6.5)" font-family="FreeSans" font-size="16" font-weight="normal" xml:space="preserve">
    <tspan fill="rgb(38,38,38)" x="0 9 " y="-0">40</tspan>
   </text>
   <text font-style="normal" transform="translate(160.957,160.153) rotate(-0,18,-6.5)" font-family="FreeSans" font-size="16" font-weight="normal" xml:space="preserve">
    <tspan fill="rgb(38,38,38)" x="0 9 " y="-0">50</tspan>
   </text>
   <text font-style="normal" transform="translate(160.957,61.1593) rotate(-0,18,-6.5)" font-family="FreeSans" font-size="16" font-weight="normal" xml:space="preserve">
    <tspan fill="rgb(38,38,38)" x="0 9 " y="-0">60</tspan>
   </text>
   <polyline fill="none" points="186.947,648.624 1301.52,648.624" stroke-linecap="square" stroke="#262626" stroke-width="0.5" stroke-dasharray="16,0" stroke-linejoin="miter"/>
   <polyline fill="none" points="186.947,54.6594 1301.52,54.6594" stroke-linecap="square" stroke="#262626" stroke-width="0.5" stroke-dasharray="16,0" stroke-linejoin="miter"/>
   <polyline fill="none" points="186.947,648.624 186.947,54.6594" stroke-linecap="square" stroke="#262626" stroke-width="0.5" stroke-dasharray="16,0" stroke-linejoin="miter"/>
   <polyline fill="none" points="1301.52,648.624 1301.52,54.6594" stroke-linecap="square" stroke="#262626" stroke-width="0.5" stroke-dasharray="16,0" stroke-linejoin="miter"/>
   <text font-style="normal" transform="translate(713.221,696.623) rotate(-0,31,-18)" font-family="FreeSans" font-size="17.6" font-weight="normal" xml:space="preserve">
    <tspan fill="rgb(38,38,38)" x="0 11 15 29 38 42 47 57 " y="-4">Time [d]</tspan>
   </text>
   <text font-style="normal" transform="translate(83.9574,351.642) rotate(-90,72,0)" font-family="FreeSans" font-size="17.6" font-weight="normal" xml:space="preserve">
    <tspan fill="rgb(38,38,38)" x="0 12 17 23 32 42 56 61 65 74 87 91 96 110 124 129 139 " y="-4">Streamflow [mm/d]</tspan>
   </text>
   <text font-style="normal" transform="translate(572.721,44.6593) rotate(-0,171.5,0)" font-family="FreeSans" font-size="17.6" font-weight="bold" xml:space="preserve">
    <tspan fill="rgb(0,0,0)" x="0 15 26 37 47 52 57 67 77 82 87 98 105 115 121 126 137 148 153 163 174 185 190 200 210 220 225 236 246 252 257 268 279 284 291 301 311 322 327 333 " y="-1">Model calibration and evaluation results</tspan>
   </text>
   <polyline fill="none" points="186.947,585.083 187.737,597.791 188.483,615.708 189.273,623.207 190.019,627.853 190.765,628.707 191.555,629.082 192.301,625.291 193.047,621.124 193.837,625.916 194.583,619.666 195.373,445.5 196.119,304.875 196.865,522.999 197.655,501.541 198.401,574.874 199.191,604.041 199.937,615.291 200.683,608.208 201.473,600.708 202.219,605.916 202.965,609.666 203.755,612.583 204.501,615.083 205.291,616.958 206.037,617.999 206.783,617.374 207.573,617.583 208.319,615.916 209.109,610.499 209.855,609.874 210.601,610.291 211.391,612.166 212.137,612.374 212.883,611.749 213.673,612.166 214.419,613.416 215.208,614.458 215.955,615.708 216.701,617.374 217.49,618.624 218.237,619.666 219.026,620.499 219.772,621.124 220.518,558.208 221.308,516.958 222.054,484.041 222.8,528.416 223.59,528.416 224.336,493 225.126,514.041 225.872,419.458 226.618,469.458 227.408,589.041 228.154,609.458 228.9,618.833 229.69,624.041 230.436,623.624 231.226,605.291 231.972,607.791 232.718,617.374 233.508,622.582 234.254,625.707 235.044,547.166 235.79,398.625 236.536,558.208 237.326,600.916 238.072,614.041 238.818,621.124 239.608,625.082 240.354,627.937 241.144,630.041 241.89,631.728 242.636,633.103 243.426,634.499 244.172,635.707 244.962,636.249 245.708,636.582 246.454,636.666 247.244,636.041 247.99,636.187 248.736,636.937 249.526,636.832 250.272,636.728 251.062,637.062 251.808,637.291 252.554,637.874 253.344,638.27 254.09,638.312 254.88,636.332 255.626,634.937 256.372,636.124 257.162,625.082 257.908,544.666 258.654,484.875 259.444,583.624 260.19,599.249 260.98,601.958 261.726,612.374 262.472,620.916 263.262,625.916 264.008,628.52 264.798,630.374 265.544,631.874 266.29,632.582 267.08,633.666 267.826,634.916 268.572,635.957 269.362,636.437 270.108,636.812 270.898,637.395 271.644,637.791 272.39,637.999 273.18,638.145 273.926,638.666 274.672,639.312 275.462,639.582 276.208,639.874 276.998,640.103 277.744,640.312 278.49,639.978 279.28,639.478 280.026,640.145 280.815,640.353 281.562,638.728 282.308,636.332 283.097,637.27 283.844,638.166 284.59,638.353 285.379,638.166 286.125,638.749 286.915,639.395 287.661,639.749 288.407,639.895 289.197,639.353 289.943,639.457 290.733,640.166 291.479,640.457 292.225,640.457 293.015,599.041 293.761,557.999 294.507,616.541 295.297,623.416 296.043,626.541 296.833,630.978 297.579,633.291 298.325,631.603 299.115,632.999 299.861,635.624 300.651,636.916 301.397,637.832 302.143,638.582 302.933,639.228 303.679,633.52 304.425,635.374 305.215,637.52 305.961,638.207 306.751,639.02 307.497,639.562 308.243,639.624 309.033,639.624 309.779,640.145 310.569,639.457 311.315,632.478 312.061,629.749 312.851,583.416 313.597,576.333 314.343,610.708 315.133,622.582 315.879,625.499 316.669,624.041 317.415,627.374 318.161,621.124 318.951,626.749 319.697,630.999 320.443,634.541 321.233,636.166 321.979,636.687 322.769,633.978 323.515,617.791 324.261,625.082 325.051,619.249 325.797,604.874 326.587,555.708 327.333,569.874 328.079,599.041 328.869,601.124 329.615,611.749 330.361,595.499 331.151,615.499 331.897,624.666 332.687,618.624 333.433,605.083 334.179,617.583 334.969,625.291 335.715,630.249 336.505,632.395 337.251,633.145 337.997,635.249 338.787,635.437 339.533,631.916 340.279,634.832 341.069,636.666 341.815,637.478 342.605,637.916 343.351,638.207 344.097,638.666 344.887,639.332 345.633,639.77 346.422,640.103 347.169,640.374 347.915,640.291 348.704,634.728 349.451,636.728 350.197,638.645 350.986,639.853 351.732,640.499 352.522,640.895 353.268,640.999 354.014,641.249 354.804,641.707 355.55,641.978 356.34,642.041 357.086,642.187 357.832,642.332 358.622,642.478 359.368,642.562 360.114,642.645 360.904,642.687 361.65,642.041 362.44,642.332 363.186,642.666 363.932,642.832 364.722,642.978 365.468,643.062 366.214,642.978 367.004,643.062 367.75,643.103 368.54,642.916 369.286,641.437 370.032,642.416 370.822,642.541 371.568,637.916 372.358,638.853 373.104,638.895 373.85,638.832 374.64,641.124 375.386,641.916 376.132,642.312 376.922,642.562 377.668,642.666 378.458,642.749 379.204,641.999 379.95,642.062 380.74,642.541 381.486,642.166 382.276,638.124 383.022,637.52 383.768,638.707 384.558,639.52 385.304,640.77 386.05,641.52 386.84,642.041 387.586,642.457 388.376,642.52 389.122,642.249 389.868,641.812 390.658,641.895 391.404,640.499 392.194,639.853 392.94,640.353 393.686,640.666 394.476,634.624 395.222,613.624 395.968,607.583 396.758,625.916 397.504,633.103 398.294,636.082 399.04,637.437 399.786,638.395 400.576,639.166 401.322,639.645 402.112,640.02 402.858,640.332 403.604,640.582 404.394,640.812 405.14,640.999 405.886,641.145 406.676,641.207 407.422,637.582 408.212,633.437 408.958,637.207 409.704,638.541 410.494,639.332 411.24,640.02 411.986,640.353 412.776,640.624 413.522,640.895 414.311,641.082 415.057,641.27 415.804,641.582 416.593,641.707 417.339,641.791 418.129,641.791 418.875,641.791 419.621,641.791 420.411,641.853 421.157,641.957 421.903,641.999 422.693,641.52 423.439,639.77 424.229,634.728 424.975,625.082 425.721,630.707 426.511,634.874 427.257,636.666 428.047,637.77 428.793,636.207 429.539,614.458 430.329,587.166 431.075,607.166 431.821,622.791 432.611,629.353 433.357,632.812 434.147,634.603 434.893,635.541 435.639,633.041 436.429,632.27 437.175,634.374 437.965,635.437 438.711,636.291 439.457,636.978 440.247,637.77 440.993,638.437 441.739,638.916 442.529,639.353 443.275,639.687 444.065,639.978 444.811,640.103 445.557,640.187 446.347,640.291 447.093,640.291 447.883,640.062 448.629,640.062 449.375,640.291 450.165,640.291 450.911,640.374 451.657,640.624 452.447,640.582 453.193,640.52 453.983,640.791 454.729,640.874 455.475,640.728 456.265,640.374 457.011,640.603 457.801,641.27 458.547,641.062 459.293,639.895 460.083,640.77 460.829,640.937 461.575,641.082 462.365,641.103 463.111,641.228 463.901,639.457 464.647,584.458 465.393,557.791 466.183,607.791 466.929,621.124 467.675,618.208 468.465,605.291 469.211,616.958 470.001,623.416 470.747,626.749 471.493,628.749 472.283,630.999 473.029,632.853 473.819,634.332 474.565,635.603 475.311,636.562 476.101,637.187 476.847,637.687 477.593,637.895 478.383,635.791 479.129,635.166 479.918,635.937 480.664,620.916 481.411,619.249 482.2,624.874 482.946,628.166 483.736,630.187 484.482,631.937 485.228,633.603 486.018,635.082 486.764,632.999 487.51,623.207 488.3,624.457 489.046,627.874 489.836,626.749 490.582,485.916 491.328,167.375 492.118,488.208 492.864,594.249 493.654,610.083 494.4,618.208 495.146,622.582 495.936,537.999 496.682,532.374 497.428,595.916 498.218,611.124 498.964,618.624 499.754,623.207 500.5,610.291 501.246,601.958 502.036,616.958 502.782,622.374 503.572,625.707 504.318,628.541 505.064,629.062 505.854,629.937 506.6,632.041 507.346,633.853 508.136,634.937 508.882,635.603 509.672,636.041 510.418,636.332 511.164,635.207 511.954,630.916 512.7,629.707 513.446,631.145 514.236,632.249 514.982,633.082 515.772,629.791 516.518,602.791 517.264,590.499 518.054,607.999 518.8,617.791 519.59,623.416 520.336,626.124 521.082,621.332 521.872,548.416 522.618,570.708 523.364,601.749 524.154,614.249 524.9,621.124 525.69,625.082 526.436,627.374 527.182,629.353 527.972,630.916 528.718,632.082 529.508,633.249 530.254,634.332 531,635.27 531.79,635.562 532.536,635.728 533.282,634.457 534.072,635.624 534.818,636.687 535.608,637.312 536.354,637.624 537.1,637.832 537.89,637.562 538.636,636.853 539.426,637.52 540.172,638.041 540.918,638.082 541.708,637.749 542.454,637.853 543.2,638.207 543.99,638.353 544.736,638.353 545.525,638.353 546.271,638.291 547.018,637.791 547.807,638.145 548.553,638.457 549.343,621.124 550.089,601.541 550.835,620.499 551.625,627.374 552.371,630.645 553.117,632.582 553.907,634.207 554.653,634.853 555.443,635.041 556.189,636.041 556.935,636.77 557.725,634.603 558.471,629.27 559.217,631.791 560.007,630.707 560.753,630.562 561.543,633.082 562.289,634.749 563.035,635.624 563.825,635.812 564.571,636.624 565.361,637.062 566.107,636.082 566.853,636.895 567.643,637.832 568.389,638.291 569.135,637.332 569.925,636.749 570.671,638.082 571.461,631.645 572.207,590.083 572.953,604.458 573.743,617.374 574.489,624.249 575.279,628.624 576.025,631.416 576.771,632.666 577.561,633.457 578.307,635.374 579.053,636.853 579.843,637.853 580.589,638.541 581.379,639.187 582.125,636.582 582.871,636.082 583.661,638.062 584.407,638.978 585.197,639.499 585.943,639.978 586.689,640.27 587.479,640.582 588.225,640.937 588.971,641.187 589.761,641.374 590.507,641.457 591.297,641.145 592.043,640.499 592.789,641.166 593.579,641.52 594.325,641.687 595.115,641.707 595.861,639.645 596.607,637.937 597.397,638.478 598.143,640.187 598.889,641.062 599.679,641.52 600.425,641.77 601.215,641.957 601.961,642.145 602.707,642.291 603.497,642.395 604.243,642.457 604.989,642.541 605.779,642.728 606.525,642.895 607.315,642.999 608.061,643.02 608.807,642.957 609.596,642.853 610.343,642.791 611.132,642.145 611.878,633.187 612.625,631.041 613.414,637.582 614.16,640.124 614.906,641.103 615.696,641.624 616.442,641.937 617.232,642.166 617.978,642.291 618.724,642.312 619.514,642.27 620.26,641.582 621.05,640.999 621.796,641.812 622.542,642.332 623.332,642.541 624.078,642.687 624.824,642.791 625.614,642.978 626.36,643.103 627.15,643.187 627.896,643.249 628.642,643.353 629.432,643.395 630.178,643.124 630.968,642.562 631.714,642.728 632.46,643.145 633.25,643.374 633.996,643.52 634.742,643.603 635.532,643.687 636.278,643.791 637.068,643.832 637.814,643.832 638.56,643.916 639.35,644.062 640.096,644.187 640.886,644.291 641.632,644.395 642.378,644.291 643.168,644.041 643.914,644.27 644.66,644.312 645.45,644.353 646.196,644.437 646.986,644.52 647.732,644.582 648.478,644.666 649.268,644.728 650.014,644.832 650.76,644.832 651.55,644.874 652.296,644.874 653.086,644.874 653.832,644.916 654.578,644.957 655.368,644.978 656.114,644.874 656.904,644.395 657.65,644.437 658.396,644.166 659.186,643.937 659.932,644.02 660.678,644.041 661.468,644.041 662.214,643.853 663.004,644.103 663.75,644.374 664.496,644.457 665.286,644.478 666.032,644.457 666.822,644.249 667.568,644.187 668.314,644.374 669.104,644.416 669.85,644.478 670.596,644.52 671.386,644.582 672.132,644.645 672.922,644.728 673.668,645.062 674.414,645.062 675.203,645.062 675.95,644.124 676.739,642.187 677.485,643.124 678.232,643.957 679.021,643.603 679.767,640.041 680.513,642.124 681.303,643.124 682.049,643.624 682.839,643.832 683.585,643.895 684.331,643.999 685.121,644.082 685.867,644.082 686.657,642.978 687.403,641.624 688.149,642.707 688.939,643.249 689.685,642.874 690.431,640.332 691.221,640.957 691.967,642.124 692.757,642.749 693.503,643.02 694.249,643.249 695.039,643.499 695.785,643.582 696.531,643.624 697.321,643.645 698.067,643.645 698.857,643.687 699.603,643.645 700.349,643.416 701.139,642.999 701.885,642.791 702.675,642.957 703.421,642.187 704.167,630.312 704.957,634.937 705.703,639.124 706.449,641.02 707.239,641.895 707.985,642.332 708.775,642.541 709.521,642.228 710.267,642.062 711.057,642.062 711.803,642.082 712.593,642.187 713.339,642.249 714.085,642.187 714.875,641.957 715.621,641.978 716.367,642.145 717.157,642.228 717.903,641.249 718.693,637.582 719.439,638.749 720.185,640.041 720.975,640.957 721.721,625.707 722.511,597.166 723.257,623.832 724.003,631.312 724.793,634.895 725.539,636.457 726.285,637.582 727.075,638.437 727.821,639.103 728.611,639.603 729.357,640.124 730.103,640.437 730.893,640.437 731.639,640.562 732.429,640.082 733.175,628.02 733.921,605.499 734.711,617.583 735.457,601.124 736.203,479.875 736.993,477.375 737.739,577.999 738.529,607.999 739.275,618.624 740.021,622.791 740.81,598.624 741.557,602.166 742.303,603.833 743.092,527.166 743.839,582.999 744.628,610.083 745.374,619.874 746.12,624.666 746.91,627.374 747.656,629.916 748.446,626.749 749.192,621.124 749.938,625.082 750.728,626.749 751.474,611.749 752.22,611.541 753.01,619.249 753.756,624.666 754.546,627.374 755.292,628.832 756.038,630.291 756.828,632.166 757.574,633.437 758.364,634.249 759.11,635.166 759.856,636.207 760.646,637.082 761.392,637.895 762.138,638.374 762.928,638.791 763.674,639.082 764.464,639.145 765.21,639.207 765.956,639.374 766.746,639.603 767.492,639.937 768.282,639.957 769.028,639.999 769.774,640.062 770.564,639.978 771.31,638.478 772.056,637.916 772.846,638.062 773.592,638.353 774.382,638.52 775.128,638.707 775.874,638.999 776.664,635.853 777.41,604.874 778.2,608.624 778.946,621.541 779.692,611.333 780.482,367.375 781.228,144.459 781.974,273.625 782.764,559.874 783.51,597.791 784.3,610.291 785.046,617.166 785.792,622.791 786.582,625.707 787.328,628.228 788.118,630.457 788.864,630.937 789.61,625.082 790.4,624.874 791.146,624.457 791.892,625.916 792.682,627.582 793.428,629.207 794.218,630.895 794.964,632.312 795.71,633.52 796.5,634.395 797.246,634.832 797.992,634.791 798.782,635.249 799.528,636.124 800.318,636.791 801.064,637.207 801.81,636.687 802.6,636.749 803.346,637.395 804.135,637.791 804.882,637.374 805.628,556.333 806.417,582.999 807.164,612.791 807.91,621.749 808.699,625.916 809.445,627.582 810.235,610.083 810.981,534.874 811.727,585.499 812.517,607.999 813.263,617.374 814.053,622.999 814.799,626.541 815.545,628.249 816.335,630.124 817.081,631.77 817.827,632.395 818.617,631.687 819.363,632.416 820.153,633.437 820.899,633.082 821.645,632.041 822.435,619.041 823.181,549.666 823.971,568.624 824.717,604.874 825.463,616.333 826.253,619.874 826.999,607.166 827.745,616.124 828.535,622.791 829.281,626.124 830.071,629.02 830.817,631.145 831.563,632.582 832.353,633.395 833.099,631.041 833.889,574.458 834.635,549.249 835.381,595.916 836.171,614.041 836.917,621.541 837.663,624.249 838.453,615.083 839.199,608.208 839.989,618.416 840.735,624.249 841.481,619.874 842.271,618.833 843.017,606.333 843.763,571.958 844.553,579.249 845.299,598.833 846.089,613.624 846.835,621.541 847.581,626.124 848.371,616.749 849.117,601.541 849.907,604.666 850.653,616.541 851.399,625.291 852.189,628.791 852.935,630.978 853.681,631.478 854.471,427.791 854.676,54.0654" stroke-linecap="butt" stroke="#000000" stroke-width="0.5" stroke-linejoin="round"/>
   <polyline fill="none" points="855.946,54.0654 856.007,136.126 856.753,554.874 857.499,597.583 858.289,611.958 859.035,619.041 859.825,620.916 860.571,625.499 861.317,628.062 862.107,624.666 862.853,626.749 863.599,630.499 864.389,632.291 865.135,633.812 865.925,634.874 866.671,635.478 867.417,635.457 868.207,635.978 868.953,635.707 869.742,635.999 870.489,635.666 871.235,636.77 872.024,637.728 872.771,638.249 873.517,638.562 874.306,638.541 875.052,636.249 875.842,633.895 876.588,629.666 877.334,628.166 878.124,632.145 878.87,634.978 879.66,636.312 880.406,637.166 881.152,637.77 881.942,638.332 882.688,638.874 883.434,636.77 884.224,638.353 884.97,638.228 885.76,639.166 886.506,639.541 887.252,639.728 888.042,639.624 888.788,639.541 889.534,639.687 890.324,639.978 891.07,640.416 891.86,640.707 892.606,640.957 893.352,641.207 894.142,641.082 894.888,641.103 895.678,640.77 896.424,641.124 897.17,641.499 897.96,641.812 898.706,641.999 899.452,641.562 900.242,640.478 900.988,640.27 901.778,640.874 902.524,641.291 903.27,641.624 904.06,641.812 904.806,642.02 905.596,642.291 906.342,642.499 907.088,642.624 907.878,642.687 908.624,642.749 909.37,641.999 910.16,642.02 910.906,642.416 911.696,642.541 912.442,638.437 913.188,637.562 913.978,640.166 914.724,641.249 915.514,641.666 916.26,641.853 917.006,642.166 917.796,642.249 918.542,641.937 919.288,641.645 920.078,642.103 920.824,642.395 921.614,642.52 922.36,642.645 923.106,642.832 923.896,642.916 924.642,642.853 925.432,642.437 926.178,642.457 926.924,642.041 927.714,637.582 928.46,639.999 929.206,641.312 929.996,641.999 930.742,642.395 931.532,642.645 932.278,642.749 933.024,642.832 933.814,643.041 934.56,643.207 935.306,643.291 936.096,642.187 936.842,642.249 937.631,642.749 938.378,642.957 939.124,643.207 939.913,643.332 940.659,643.478 941.449,643.562 942.195,643.624 942.941,643.437 943.731,643.353 944.477,643.603 945.223,643.645 946.013,643.645 946.759,643.541 947.549,642.582 948.295,641.353 949.041,642.353 949.831,642.957 950.577,643.207 951.367,643.353 952.113,643.728 952.859,643.832 953.649,643.853 954.395,643.957 955.141,643.937 955.931,643.457 956.677,643.312 957.467,643.353 958.213,643.478 958.959,643.478 959.749,643.478 960.495,643.478 961.285,643.437 962.031,643.478 962.777,643.416 963.567,643.145 964.313,643.082 965.059,643.082 965.849,643.103 966.595,643.145 967.385,643.27 968.131,643.374 968.877,642.957 969.667,641.832 970.413,629.228 971.203,633.562 971.949,637.228 972.695,636.457 973.485,638.978 974.231,640.291 974.977,641.062 975.767,641.228 976.513,640.957 977.303,641.228 978.049,641.749 978.795,642.062 979.585,642.228 980.331,642.312 981.077,642.374 981.867,642.499 982.613,642.582 983.403,642.624 984.149,642.666 984.895,642.707 985.685,642.749 986.431,642.77 987.221,642.77 987.967,642.77 988.713,642.77 989.503,642.77 990.249,642.27 990.995,639.77 991.785,639.291 992.531,639.207 993.321,639.999 994.067,640.707 994.813,640.832 995.603,640.999 996.349,640.957 997.139,640.978 997.885,638.27 998.631,457.375 999.421,300.708 1000.17,117.376 1000.91,484.458 1001.7,598.833 1002.45,614.666 1003.24,622.582 1003.98,627.166 1004.73,621.749 1005.52,584.249 1006.27,604.041 1007.06,617.166 1007.8,616.749 1008.55,593.416 1009.34,607.166 1010.08,618.208 1010.83,624.041 1011.62,627.999 1012.37,630.728 1013.16,632.562 1013.9,633.832 1014.65,634.603 1015.44,634.291 1016.18,630.937 1016.97,630.395 1017.72,632.312 1018.47,633.707 1019.26,634.249 1020,633.999 1020.75,634.457 1021.54,635.27 1022.28,635.895 1023.07,636.312 1023.82,635.187 1024.57,634.957 1025.36,635.541 1026.1,636.041 1026.85,636.52 1027.64,636.707 1028.38,635.832 1029.17,635.978 1029.92,636.666 1030.67,636.937 1031.46,635.957 1032.2,628.02 1032.99,619.874 1033.74,627.166 1034.48,630.249 1035.27,631.978 1036.02,633.562 1036.77,634.853 1037.56,635.582 1038.3,636.062 1039.09,635.937 1039.84,635.895 1040.58,636.687 1041.37,637.416 1042.12,637.957 1042.91,638.228 1043.66,638.395 1044.4,638.645 1045.19,639.02 1045.94,639.062 1046.68,639.249 1047.47,639.437 1048.22,639.603 1049.01,639.687 1049.76,639.874 1050.5,640.207 1051.29,640.395 1052.04,640.603 1052.83,640.791 1053.57,640.874 1054.32,640.895 1055.11,640.895 1055.86,640.77 1056.6,639.624 1057.39,639.124 1058.14,639.166 1058.93,636.228 1059.67,635.27 1060.42,635.749 1061.21,636.624 1061.96,637.291 1062.75,632.228 1063.49,615.708 1064.24,620.082 1065.03,610.291 1065.77,594.666 1066.52,612.999 1067.31,621.958 1068.06,627.166 1068.85,630.312 1069.59,632.103 1070.34,633.562 1071.13,634.77 1071.87,635.374 1072.62,636.228 1073.41,637.103 1074.16,636.291 1074.95,392.375 1075.69,469.25 1076.44,593.416 1077.23,611.124 1077.97,620.708 1078.76,625.916 1079.51,629.332 1080.26,631.687 1081.05,628.395 1081.79,610.499 1082.54,616.333 1083.33,622.791 1084.07,625.916 1084.86,625.916 1085.61,627.166 1086.36,629.645 1087.15,630.916 1087.89,631.978 1088.68,632.916 1089.43,633.812 1090.17,633.478 1090.96,633.228 1091.71,634.499 1092.46,635.332 1093.25,636.041 1093.99,636.478 1094.78,636.937 1095.53,637.395 1096.27,637.541 1097.06,637.562 1097.81,637.937 1098.6,638.249 1099.34,638.562 1100.09,638.832 1100.88,639.082 1101.63,639.312 1102.37,639.416 1103.16,638.145 1103.91,638.207 1104.7,638.895 1105.44,639.02 1106.19,637.624 1106.98,634.124 1107.73,633.52 1108.52,635.145 1109.26,636.312 1110.01,637.103 1110.8,637.791 1111.54,638.207 1112.29,638.582 1113.08,638.916 1113.83,639.228 1114.62,639.499 1115.36,639.812 1116.11,640.082 1116.9,640.374 1117.64,640.624 1118.39,640.728 1119.18,640.853 1119.93,640.978 1120.72,641.082 1121.46,641.187 1122.21,641.312 1123,641.332 1123.74,635.249 1124.53,635.02 1125.28,638.541 1126.03,639.937 1126.82,640.478 1127.56,640.832 1128.31,639.582 1129.1,639.874 1129.84,640.541 1130.63,639.312 1131.38,640.416 1132.13,641.228 1132.92,641.353 1133.66,641.353 1134.45,641.374 1135.2,641.52 1135.94,641.457 1136.73,639.874 1137.48,639.666 1138.23,641.082 1139.02,641.478 1139.76,640.228 1140.55,631.957 1141.3,627.791 1142.04,622.999 1142.83,626.332 1143.58,629.353 1144.37,630.603 1145.12,632.374 1145.86,633.624 1146.65,634.457 1147.4,634.874 1148.14,635.916 1148.93,636.853 1149.68,637.374 1150.47,639.645 1151.22,640.187 1151.96,638.916 1152.75,639.103 1153.5,632.937 1154.29,637.999 1155.03,639.978 1155.78,640.77 1156.57,641.145 1157.32,633.02 1158.06,611.124 1158.85,628.874 1159.6,634.832 1160.39,637.374 1161.13,637.291 1161.88,638.166 1162.67,637.874 1163.42,632.707 1164.21,629.27 1164.95,612.999 1165.7,622.582 1166.49,630.062 1167.23,633.957 1167.98,636.457 1168.77,637.874 1169.52,638.853 1170.31,639.666 1171.05,640.27 1171.8,640.02 1172.59,639.562 1173.33,640.082 1174.08,640.645 1174.87,641.166 1175.62,641.582 1176.41,641.457 1177.15,640.395 1177.9,639.916 1178.69,640.207 1179.43,640.582 1180.22,639.978 1180.97,640.874 1181.72,641.499 1182.51,641.853 1183.25,641.937 1184,641.082 1184.79,640.541 1185.53,641.437 1186.32,641.957 1187.07,641.895 1187.82,641.603 1188.61,641.978 1189.35,641.999 1190.14,642.166 1190.89,642.374 1191.63,642.437 1192.42,642.416 1193.17,642.103 1193.92,641.978 1194.71,642.499 1195.45,642.624 1196.24,641.478 1196.99,642.416 1197.73,642.728 1198.52,642.937 1199.27,643.02 1200.06,643.124 1200.81,643.166 1201.55,643.082 1202.34,642.749 1203.09,641.77 1203.83,641.103 1204.62,641.499 1205.37,618.208 1206.16,627.374 1206.91,635.791 1207.65,638.437 1208.44,639.728 1209.19,639.166 1209.98,557.999 1210.72,578.624 1211.47,617.999 1212.26,626.541 1213.01,630.687 1213.75,634.603 1214.54,636.832 1215.29,638.187 1216.08,639.291 1216.82,640.187 1217.57,640.77 1218.36,641.166 1219.11,641.499 1219.85,641.812 1220.64,641.853 1221.39,629.728 1222.18,623.832 1222.92,632.624 1223.67,636.228 1224.46,631.187 1225.21,619.666 1226,625.499 1226.74,631.999 1227.49,634.582 1228.28,622.791 1229.02,629.124 1229.77,634.645 1230.56,636.957 1231.31,638.228 1232.09,638.832 1232.84,639.437 1233.59,639.853 1234.38,640.124 1235.12,640.52 1235.91,640.874 1236.66,641.145 1237.41,641.312 1238.19,641.457 1238.94,641.437 1239.69,641.624 1240.48,641.749 1241.22,641.541 1242.01,641.707 1242.76,641.353 1243.5,640.52 1244.29,641.041 1245.04,641.499 1245.83,641.707 1246.58,641.728 1247.32,641.562 1248.11,641.582 1248.86,641.645 1249.6,641.874 1250.39,641.957 1251.14,641.749 1251.93,640.916 1252.68,640.853 1253.42,641.124 1254.21,640.707 1254.96,640.916 1255.75,640.624 1256.49,639.832 1257.24,639.499 1258.03,638.52 1258.78,638.416 1259.52,639.082 1260.31,639.749 1261.06,640.207 1261.85,640.562 1262.59,640.728 1263.34,640.103 1264.13,637.52 1264.88,636.582 1265.62,638.062 1266.41,638.978 1267.16,639.478 1267.95,639.603 1268.69,639.853 1269.44,640.02 1270.23,638.437 1270.98,620.082 1271.77,613.416 1272.51,626.124 1273.26,626.957 1274.05,618.833 1274.79,625.082 1275.54,629.437 1276.33,631.978 1277.08,633.812 1277.87,635.207 1278.61,636.228 1279.36,637.207 1280.15,637.812 1280.89,637.874 1281.68,638.457 1282.43,638.832 1283.18,639.082 1283.97,639.103 1284.71,638.082 1285.46,637.728 1286.25,638.228 1286.99,638.582 1287.78,638.874 1288.53,639.124 1289.28,638.957 1290.07,638.832 1290.81,638.957 1291.6,639.124 1292.35,636.291 1293.09,631.895 1293.88,631.832 1294.63,619.666 1295.38,602.166 1296.17,613.624 1296.91,619.458 1297.7,623.207 1298.45,625.916 1299.19,628.062 1299.98,630.041 1300.73,631.562" stroke-linecap="butt" stroke="#000000" stroke-width="0.5" stroke-linejoin="round"/>
   <polyline fill="none" points="186.947,604.434 187.737,636.323 188.483,640.66 189.273,643.885 190.019,645.075 190.765,643.811 191.555,646.292 192.301,644.572 193.047,646.153 193.837,647.101 194.583,643.59 195.373,640.159 196.119,643.185 196.865,644.451 197.655,644.157 198.401,647.734 199.191,647.793 199.937,647.844 200.683,647.889 201.473,647.93 202.219,647.966 202.965,647.999 203.755,648.028 204.501,648.055 205.291,648.08 206.037,648.103 206.783,646.836 207.573,648.143 208.319,647.265 209.109,647.033 209.855,648.193 210.601,648.207 211.391,648.22 212.137,647.484 212.883,647.726 213.673,647.765 214.419,647.84 215.208,647.802 215.955,648.253 216.701,648.253 217.49,648.253 218.237,648.255 219.026,648.259 219.772,647.744 220.518,645.523 221.308,645.625 222.054,646.961 222.8,646.31 223.59,645.033 224.336,647 225.126,644.012 225.872,635.719 226.618,644.501 227.408,638.729 228.154,643.035 228.9,642.333 229.69,641.867 230.436,622.586 231.226,603.472 231.972,640.509 232.718,640.383 233.508,640.357 234.254,640.388 235.044,129.522 235.79,451.8 236.536,639.705 237.326,639.677 238.072,639.711 238.818,639.785 239.608,639.886 240.354,640.006 241.144,640.139 241.89,640.28 242.636,640.425 243.426,640.567 244.172,640.71 244.962,639.958 245.708,640.688 246.454,635.098 247.244,616.102 247.99,640.447 248.736,640.425 249.526,639.808 250.272,640.504 251.062,640.609 251.808,640.739 252.554,640.884 253.344,631.156 254.09,635.03 254.88,594.237 255.626,640.258 256.372,640.267 257.162,523.895 257.908,278.688 258.654,511.265 259.444,595.542 260.19,535.594 260.98,599.21 261.726,636.977 262.472,639.731 263.262,639.841 264.008,639.969 264.798,640.115 265.544,640.272 266.29,636.862 267.08,640.443 267.826,640.588 268.572,640.758 269.362,638.506 270.108,640.932 270.898,641.075 271.644,641.242 272.39,641.426 273.18,641.618 273.926,641.814 274.672,642.013 275.462,642.214 276.208,642.414 276.998,642.611 277.744,642.796 278.49,640.623 279.28,642.956 280.026,643.07 280.815,643.194 281.562,638.175 282.308,639.054 283.097,642.78 283.844,642.78 284.59,641.063 285.379,640.448 286.125,642.676 286.915,642.744 287.661,642.852 288.407,642.979 289.197,639.909 289.943,643.027 290.733,643.131 291.479,643.264 292.225,643.403 293.015,632.146 293.761,637.589 294.507,641.655 295.297,640.881 296.043,642.116 296.833,642.173 297.579,642.272 298.325,634.85 299.115,641.979 299.861,642.023 300.651,642.137 301.397,642.292 302.143,642.475 302.933,638.457 303.679,642.527 304.425,642.629 305.215,641.447 305.961,641.223 306.751,642.761 307.497,642.882 308.243,639.346 309.033,642.894 309.779,642.999 310.569,639.255 311.315,634.175 312.061,636.593 312.851,545.162 313.597,636.58 314.343,640.689 315.133,640.665 315.879,627.674 316.669,635.928 317.415,614.974 318.161,627.256 318.951,640.251 319.697,640.384 320.443,640.563 321.233,640.77 321.979,640.99 322.769,635.523 323.515,629.473 324.261,632.669 325.051,622.969 325.797,447.418 326.587,571.141 327.333,533.756 328.079,639.826 328.869,624.454 329.615,640.002 330.361,449.23 331.151,639.935 331.897,640.07 332.687,579.024 333.433,590.066 334.179,632.088 334.969,640.06 335.715,640.233 336.505,637.589 337.251,634.537 337.997,640.472 338.787,627.221 339.533,635.309 340.279,640.432 341.069,640.572 341.815,640.748 342.605,637.496 343.351,635.205 344.097,640.764 344.887,640.9 345.633,641.079 346.422,641.284 347.169,641.502 347.915,636.617 348.704,639.846 349.451,639.496 350.197,641.471 350.986,641.602 351.732,641.772 352.522,641.96 353.268,642.154 354.014,642.351 354.804,642.551 355.55,642.754 356.34,642.957 357.086,643.161 357.832,643.365 358.622,643.567 359.368,643.767 360.114,643.964 360.904,644.151 361.65,643.77 362.44,644.472 363.186,644.641 363.932,644.814 364.722,644.987 365.468,645.16 366.214,645.331 367.004,644.743 367.75,644.221 368.54,645.16 369.286,645.721 370.032,645.834 370.822,645.953 371.568,637.434 372.358,645.63 373.104,642.417 373.85,645.301 374.64,645.235 375.386,645.219 376.132,645.245 376.922,645.3 377.668,645.379 378.458,645.477 379.204,645.26 379.95,644.717 380.74,645.697 381.486,645.784 382.276,642.095 383.022,644.541 383.768,643.224 384.558,645.462 385.304,645.43 386.05,645.435 386.84,645.471 387.586,645.53 388.376,645.106 389.122,642.273 389.868,645.478 390.658,641.611 391.404,643.683 392.194,645.039 392.94,644.98 393.686,642.21 394.476,633.914 395.222,635.073 395.968,639.772 396.758,642.284 397.504,641.989 398.294,641.84 399.04,641.793 399.786,641.812 400.576,641.867 401.322,641.943 402.112,642.035 402.858,642.136 403.604,642.245 404.394,642.357 405.14,642.472 405.886,642.587 406.676,642.7 407.422,629.387 408.212,640.923 408.958,640.145 409.704,640.478 410.494,641.298 411.24,641.279 411.986,641.307 412.776,641.364 413.522,641.437 414.311,641.519 415.057,641.605 415.804,641.694 416.593,641.783 417.339,641.873 418.129,640.416 418.875,641.921 419.621,641.969 420.411,642.025 421.157,642.086 421.903,642.151 422.693,635.39 423.439,639.73 424.229,627.559 424.975,640.883 425.721,640.822 426.511,640.768 427.257,640.768 428.047,640.799 428.793,614.058 429.539,527.33 430.329,504.08 431.075,639.843 431.821,639.793 432.611,639.793 433.357,639.824 434.147,639.873 434.893,565.438 435.639,471.779 436.429,639.663 437.175,639.668 437.965,639.702 438.711,634.192 439.457,639.797 440.247,639.855 440.993,639.914 441.739,639.974 442.529,640.034 443.275,640.094 444.065,640.151 444.811,640.21 445.557,640.272 446.347,640.334 447.093,630.221 447.883,615.494 448.629,640.103 449.375,638.547 450.165,630.172 450.911,640.049 451.657,640.072 452.447,640.107 453.193,640.149 453.983,640.183 454.729,640.241 455.475,623.038 456.265,640.151 457.011,640.16 457.801,640.184 458.547,640.216 459.293,640.254 460.083,640.298 460.829,640.345 461.575,640.396 462.365,640.449 463.111,640.504 463.901,598.782 464.647,340.971 465.393,639.859 466.183,639.793 466.929,639.782 467.675,473.637 468.465,639.666 469.211,637.672 470.001,639.71 470.747,595.121 471.493,639.724 472.283,639.766 473.029,639.819 473.819,639.879 474.565,639.938 475.311,639.999 476.101,640.063 476.847,640.131 477.593,640.203 478.383,599.743 479.129,630.064 479.918,531.691 480.664,612.439 481.411,639.783 482.2,639.802 482.946,639.845 483.736,614.001 484.482,639.863 485.228,639.909 486.018,639.969 486.764,469.344 487.51,639.801 488.3,639.809 489.046,639.849 489.836,529.427 490.582,212.912 491.328,254.051 492.118,639.453 492.864,639.467 493.654,631.513 494.4,639.568 495.146,639.644 495.936,278.039 496.682,639.565 497.428,639.604 498.218,639.67 498.964,639.749 499.754,586.441 500.5,525.017 501.246,639.69 502.036,639.732 502.782,639.76 503.572,639.874 504.318,639.962 505.064,624.973 505.854,640.029 506.6,640.097 507.346,640.175 508.136,640.257 508.882,640.351 509.672,640.453 510.418,636.347 511.164,594.842 511.954,595.795 512.7,640.022 513.446,640.036 514.236,640.098 514.982,640.187 515.772,540.308 516.518,502.294 517.264,557.453 518.054,639.745 518.8,639.803 519.59,639.899 520.336,640.02 521.082,527.857 521.872,418.226 522.618,615.659 523.364,639.724 524.154,639.797 524.9,639.887 525.69,639.995 526.436,640.12 527.182,640.256 527.972,640.394 528.718,640.401 529.508,640.635 530.254,640.758 531,640.889 531.79,639.972 532.536,638.776 533.282,638.9 534.072,640.937 534.818,640.01 535.608,641.053 536.354,641.162 537.1,641.293 537.89,636.546 538.636,640.96 539.426,641.245 540.172,641.34 540.918,638.682 541.708,637.287 542.454,641.164 543.2,641.21 543.99,641.3 544.736,640.938 545.525,641.502 546.271,639.347 547.018,640.374 547.807,641.613 548.553,641.722 549.343,617.548 550.089,611.262 550.835,640.614 551.625,640.584 552.371,640.654 553.117,640.782 553.907,640.941 554.653,633.856 555.443,638.247 556.189,640.794 556.935,640.887 557.725,632.888 558.471,603.755 559.217,603.942 560.007,526.387 560.753,639.977 561.543,640.032 562.289,640.155 563.035,638.424 563.825,636.654 564.571,640.414 565.361,640.556 566.107,631.506 566.853,640.557 567.643,640.686 568.389,640.841 569.135,631.443 569.925,640.742 570.671,640.842 571.461,603.55 572.207,552.743 572.953,557.364 573.743,639.989 574.489,640.042 575.279,640.173 576.025,640.343 576.771,638.819 577.561,639.077 578.307,640.689 579.053,640.872 579.843,641.074 580.589,641.283 581.379,641.488 582.125,623.829 582.871,641.002 583.661,641.007 584.407,641.108 585.197,641.269 585.943,641.462 586.689,641.667 587.479,641.88 588.225,642.101 588.971,642.33 589.761,642.562 590.507,642.7 591.297,640.364 592.043,643.012 592.789,643.18 593.579,643.366 594.325,643.557 595.115,643.78 595.861,635.652 596.607,639.686 597.397,643.294 598.143,643.297 598.889,643.369 599.679,643.493 600.425,643.649 601.215,643.829 601.961,644.024 602.707,644.227 603.497,644.429 604.243,644.63 604.989,644.835 605.779,645.042 606.525,645.247 607.315,645.451 608.061,645.649 608.807,645.688 609.596,646.022 610.343,646.201 611.132,645.261 611.878,634.324 612.625,643.742 613.414,645.151 614.16,645.289 614.906,645.192 615.696,645.165 616.442,645.19 617.232,645.256 617.978,645.351 618.724,645.466 619.514,645.57 620.26,643.491 621.05,645.711 621.796,645.808 622.542,645.925 623.332,646.058 624.078,646.199 624.824,646.347 625.614,646.498 626.36,646.648 627.15,646.795 627.896,646.938 628.642,647.08 629.432,647.218 630.178,646.224 630.968,646.935 631.714,647.49 632.46,647.58 633.25,647.659 633.996,647.727 634.742,647.786 635.532,647.838 636.278,647.884 637.068,647.925 637.814,647.962 638.56,647.995 639.35,648.025 640.096,648.052 640.886,648.077 641.632,648.1 642.378,647.922 643.168,648.141 643.914,648.159 644.66,648.175 645.45,648.191 646.196,648.205 646.986,648.219 647.732,648.232 648.478,648.244 649.268,648.255 650.014,648.266 650.76,648.276 651.55,648.285 652.296,648.294 653.086,648.303 653.832,648.311 654.578,648.318 655.368,648.326 656.114,647.414 656.904,648.02 657.65,647.603 658.396,647.963 659.186,647.842 659.932,647.604 660.678,648.369 661.468,647.458 662.214,648.379 663.004,648.384 663.75,648.388 664.496,648.393 665.286,648.397 666.032,648.401 666.822,647.621 667.568,648.409 668.314,648.412 669.104,648.416 669.85,648.419 670.596,648.423 671.386,648.426 672.132,648.429 672.922,648.432 673.668,648.435 674.414,648.438 675.203,648.441 675.95,646.33 676.739,648.443 677.485,648.448 678.232,648.451 679.021,647.526 679.767,647.818 680.513,648.205 681.303,648.46 682.049,648.462 682.839,648.464 683.585,648.466 684.331,648.468 685.121,648.47 685.867,648.472 686.657,647.568 687.403,648.476 688.149,648.478 688.939,648.479 689.685,647.35 690.431,648.133 691.221,648.481 691.967,648.46 692.757,648.483 693.503,648.485 694.249,648.487 695.039,648.488 695.785,648.49 696.531,648.491 697.321,648.492 698.067,648.494 698.857,648.495 699.603,648.497 700.349,648.001 701.139,648.42 701.885,648.5 702.675,648.502 703.421,646.967 704.167,646.364 704.957,648.429 705.703,648.389 706.449,648.344 707.239,648.293 707.985,648.236 708.775,648.173 709.521,648.026 710.267,648.03 711.057,647.952 711.803,647.871 712.593,647.791 713.339,647.273 714.085,646.543 714.875,647.47 715.621,647.359 716.367,647.255 717.157,647.038 717.903,642.663 718.693,646.721 719.439,646.522 720.185,646.343 720.975,646.138 721.721,634.527 722.511,645.105 723.257,644.696 724.003,644.346 724.793,644.081 725.539,643.891 726.285,643.762 727.075,643.681 727.821,643.636 728.611,643.618 729.357,643.619 730.103,641.17 730.893,643.279 731.639,641.309 732.429,638.987 733.175,635.074 733.921,634.292 734.711,641.486 735.457,551.12 736.203,235.316 736.993,507.511 737.739,621.377 738.529,639.676 739.275,639.641 740.021,498.393 740.81,521.044 741.557,576.126 742.303,471.616 743.092,428.252 743.839,639.405 744.628,639.431 745.374,639.474 746.12,639.523 746.91,639.579 747.656,601.225 748.446,434.739 749.192,639.547 749.938,639.573 750.728,589.955 751.474,541.112 752.22,614.589 753.01,639.579 753.756,639.622 754.546,639.675 755.292,621.83 756.038,639.753 756.828,639.809 757.574,639.87 758.364,638.411 759.11,639.989 759.856,640.049 760.646,640.11 761.392,640.175 762.138,640.24 762.928,640.306 763.674,640.374 764.464,640.045 765.21,640.498 765.956,638.309 766.746,640.535 767.492,640.582 768.282,640.64 769.028,640.705 769.774,640.777 770.564,635.263 771.31,618.287 772.056,640.365 772.846,640.332 773.592,640.343 774.382,640.386 775.128,640.447 775.874,640.519 776.664,575.784 777.41,535.213 778.2,639.722 778.946,639.914 779.692,477.281 780.345,54.0653" stroke-linecap="butt" stroke="#ff0000" stroke-width="0.5" stroke-linejoin="round"/>
   <polyline fill="none" points="781.271,54.0653 781.974,546.5 782.764,639.374 783.51,639.261 784.3,639.488 785.046,639.572 785.792,639.665 786.582,639.755 787.328,639.849 788.118,639.948 788.864,633.981 789.61,627.809 790.4,618.601 791.146,639.997 791.892,640.053 792.682,640.139 793.428,640.242 794.218,640.344 794.964,640.45 795.71,640.559 796.5,640.672 797.246,640.293 797.992,637.091 798.782,640.742 799.528,640.787 800.318,640.863 801.064,639.668 801.81,635.927 802.6,640.782 803.346,640.832 804.135,640.923 804.882,634.193 805.628,472.904 806.417,640.242 807.164,640.206 807.91,640.256 808.699,640.351 809.445,624.479 810.235,388.146 810.981,562.641 811.727,639.815 812.517,639.859 813.263,639.958 814.053,640.09 814.799,639.641 815.545,634.182 816.335,640.346 817.081,640.48 817.827,634.043 818.617,636.783 819.363,637.644 820.153,640.48 820.899,625.012 821.645,615.594 822.435,362.906 823.181,391.201 823.971,639.732 824.717,639.801 825.463,639.928 826.253,591.053 826.999,632.884 827.745,640.012 828.535,640.124 829.281,640.264 830.071,640.424 830.817,640.602 831.563,640.781 832.353,640.474 833.099,625.362 833.889,445.118 834.635,640.171 835.381,640.159 836.171,640.244 836.917,640.384 837.663,635.223 838.453,559.485 839.199,559.431 839.989,640 840.735,640.079 841.481,613.776 842.271,619.019 843.017,465.781 843.763,542.443 844.553,434.934 845.299,508.171 846.089,639.668 846.835,639.814 847.581,640.001 848.371,557.966 849.117,538.706 849.907,613.855 850.653,639.897 851.399,640.023 852.189,640.188 852.935,640.38 853.681,640.568 854.414,54.0653" stroke-linecap="butt" stroke="#ff0000" stroke-width="0.5" stroke-linejoin="round"/>
   <polyline fill="none" points="855.524,54.0653 856.007,523.938 856.753,564.073 857.499,639.67 858.289,639.816 859.035,640.007 859.825,579.366 860.571,640.071 861.317,631.133 862.107,554.609 862.853,640.046 863.599,640.175 864.389,640.356 865.135,640.566 865.925,640.794 866.671,638.556 867.417,639.803 868.207,640.603 868.953,637.449 869.742,641.126 870.489,638.044 871.235,641.18 872.024,641.328 872.771,641.519 873.517,641.734 874.306,637.659 875.052,632.233 875.842,635.188 876.588,603.328 877.334,630.836 878.124,640.393 878.87,640.439 879.66,640.561 880.406,640.738 881.152,640.945 881.942,641.171 882.688,641.408 883.434,640.395 884.224,641.051 884.97,641.923 885.76,642.128 886.506,642.344 887.252,642.567 888.042,637.406 888.788,642.599 889.534,640.37 890.324,642.682 891.07,641.336 891.86,642.855 892.606,643.01 893.352,643.187 894.142,643.02 894.888,643.54 895.678,640.418 896.424,643.67 897.17,643.806 897.96,643.971 898.706,644.155 899.452,644.031 900.242,638.424 900.988,643.936 901.778,643.987 902.524,644.328 903.27,644.44 904.06,644.573 904.806,644.727 905.596,644.895 906.342,645.074 907.088,645.257 907.878,645.44 908.624,643.981 909.37,645.683 910.16,645.826 910.906,645.091 911.696,644.54 912.442,639.602 913.188,645.737 913.978,645.693 914.724,645.697 915.514,645.738 916.26,645.81 917.006,645.905 917.796,646.016 918.542,644.164 919.288,646.128 920.078,646.216 920.824,646.316 921.614,646.426 922.36,646.544 923.106,646.667 923.896,646.79 924.642,646.204 925.432,646.313 926.178,647.034 926.924,644.361 927.714,642.25 928.46,646.797 929.206,646.727 929.996,646.688 930.742,646.677 931.532,646.689 932.278,646.722 933.024,646.771 933.814,646.835 934.56,646.909 935.306,646.064 936.096,646.528 936.842,647.053 937.631,647.118 938.378,647.191 939.124,647.27 939.913,647.353 940.659,647.439 941.449,647.525 942.195,646.681 942.941,646.844 943.731,647.673 944.477,647.722 945.223,647.774 946.013,647.828 946.759,646.645 947.549,645.301 948.295,647.805 949.041,647.794 949.831,647.79 950.577,647.795 951.367,647.808 952.113,647.827 952.859,647.851 953.649,647.88 954.395,647.913 955.141,646.869 955.931,646.323 956.677,647.894 957.467,647.887 958.213,647.885 958.959,647.878 959.749,647.511 960.495,647.892 961.285,647.902 962.031,647.915 962.777,646.458 963.567,647.889 964.313,647.884 965.059,647.883 965.849,647.886 966.595,647.894 967.385,647.905 968.131,647.919 968.877,646.102 969.667,644.416 970.413,644.863 971.203,647.407 971.949,646.831 972.695,646.519 973.485,646.89 974.231,646.712 974.977,646.554 975.767,644.424 976.513,646.177 977.303,646.03 978.049,645.912 978.795,645.82 979.585,645.752 980.331,645.708 981.077,645.681 981.867,645.668 982.613,645.667 983.403,645.676 984.149,645.692 984.895,645.715 985.685,645.743 986.431,645.776 987.221,645.814 987.967,645.855 988.713,645.9 989.503,645.924 990.249,640.561 990.995,644.596 991.785,643.092 992.531,645.236 993.321,645.104 994.067,645.009 994.813,644.943 995.603,644.903 996.349,644.883 997.139,644.881 997.885,637.418 998.631,542.941 999.421,265.116 1000.17,180.656 1000.91,640.489 1001.7,640.085 1002.45,639.865 1003.24,639.762 1003.98,639.732 1004.73,372.578 1005.52,502.683 1006.27,639.519 1007.06,639.537 1007.8,367.928 1008.55,516.512 1009.34,639.451 1010.08,639.478 1010.83,639.52 1011.62,639.57 1012.37,639.623 1013.16,639.679 1013.9,610.884 1014.65,616.297 1015.44,533.178 1016.18,563.723 1016.97,639.603 1017.72,639.628 1018.47,639.67 1019.26,586.984 1020,621.822 1020.75,639.695 1021.54,639.738 1022.28,639.789 1023.07,620.926 1023.82,586.593 1024.57,639.765 1025.36,639.793 1026.1,639.836 1026.85,639.887 1027.64,634.545 1028.38,587.012 1029.17,639.857 1029.92,639.879 1030.67,557.575 1031.46,579.735 1032.2,499.397 1032.99,639.616 1033.74,639.625 1034.48,639.657 1035.27,639.701 1036.02,639.753 1036.77,639.81 1037.56,639.872 1038.3,639.938 1039.09,604.689 1039.84,639.917 1040.58,639.953 1041.37,640.004 1042.12,640.065 1042.91,640.132 1043.66,640.204 1044.4,640.279 1045.19,640.355 1045.94,640.431 1046.68,640.507 1047.47,640.585 1048.22,640.664 1049.01,640.745 1049.76,640.824 1050.5,640.902 1051.29,640.976 1052.04,641.048 1052.83,641.12 1053.57,641.196 1054.32,640.918 1055.11,640.34 1055.86,639.552 1056.6,636.093 1057.39,640.966 1058.14,610.564 1058.93,611.098 1059.67,640.245 1060.42,640.206 1061.21,640.225 1061.96,640.279 1062.75,517.733 1063.49,543.297 1064.24,624.857 1065.03,479.242 1065.77,639.678 1066.52,639.71 1067.31,639.778 1068.06,639.866 1068.85,639.969 1069.59,640.084 1070.34,640.205 1071.13,640.327 1071.87,640.446 1072.62,640.569 1073.41,640.697 1074.16,640.829 1074.95,285.078 1075.69,626.901 1076.44,640.048 1077.23,640.03 1077.97,640.068 1078.76,640.14 1079.51,640.233 1080.26,640.344 1081.05,595.51 1081.79,570.191 1082.54,639.988 1083.33,640.011 1084.07,627.239 1084.86,598.892 1085.61,639.958 1086.36,631.769 1087.15,634.079 1087.89,640.077 1088.68,640.18 1089.43,640.297 1090.17,635.089 1090.96,639.71 1091.71,640.449 1092.46,640.55 1093.25,640.665 1093.99,640.795 1094.78,640.936 1095.53,641.083 1096.27,639.179 1097.06,641.216 1097.81,641.343 1098.6,641.494 1099.34,641.659 1100.09,641.832 1100.88,642.005 1101.63,642.185 1102.37,642.196 1103.16,639.617 1103.91,642.479 1104.7,642.6 1105.44,642.163 1106.19,638.39 1106.98,638.625 1107.73,642.331 1108.52,642.353 1109.26,642.439 1110.01,642.564 1110.8,642.694 1111.54,642.819 1112.29,642.828 1113.08,643.091 1113.83,643.207 1114.62,643.415 1115.36,643.593 1116.11,643.771 1116.9,643.953 1117.64,644.134 1118.39,644.307 1119.18,644.474 1119.93,644.639 1120.72,644.807 1121.46,644.978 1122.21,645.153 1123,645.329 1123.74,637.01 1124.53,645.08 1125.28,645.061 1126.03,645.094 1126.82,645.161 1127.56,645.255 1128.31,645.314 1129.1,642.051 1129.84,644.131 1130.63,645.344 1131.38,645.403 1132.13,645.489 1132.92,645.586 1133.66,645.692 1134.45,645.805 1135.2,645.919 1135.94,643.216 1136.73,643.17 1137.48,645.829 1138.23,645.847 1139.02,645.898 1139.76,642.541 1140.55,636.513 1141.3,642.957 1142.04,644.81 1142.83,639.24 1143.58,644.138 1144.37,641.231 1145.12,643.707 1145.86,642.688 1146.65,638.035 1147.4,643.21 1148.14,643.171 1148.93,643.218 1149.68,643.331 1150.47,643.484 1151.22,643.658 1151.96,636.177 1152.75,643.473 1153.5,643.523 1154.29,643.629 1155.03,643.772 1155.78,643.943 1156.57,644.132 1157.32,637.667 1158.06,640.768 1158.85,643.813 1159.6,643.846 1160.39,643.929 1161.13,642.409 1161.88,643.772 1162.67,636.79 1163.42,642.566 1164.21,638.289 1164.95,640.043 1165.7,642.928 1166.49,642.915 1167.23,642.986 1167.98,643.111 1168.77,643.27 1169.52,643.452 1170.31,643.65 1171.05,643.851 1171.8,642.36 1172.59,642.874 1173.33,641.432 1174.08,644.048 1174.87,644.142 1175.62,644.274 1176.41,644.428 1177.15,642.205 1177.9,643.966 1178.69,644.327 1179.43,644.74 1180.22,644.875 1180.97,645.024 1181.72,644.923 1182.51,645.329 1183.25,645.491 1184,643.804 1184.79,644.423 1185.53,645.711 1186.32,645.816 1187.07,645.934 1187.82,646.057 1188.61,645.783 1189.35,645.821 1190.14,646.364 1190.89,646.482 1191.63,646.071 1192.42,646.705 1193.17,646.825 1193.92,646.944 1194.71,646.73 1195.45,646.802 1196.24,647.254 1196.99,647.357 1197.73,647.46 1198.52,647.557 1199.27,647.639 1200.06,647.71 1200.81,647.771 1201.55,647.825 1202.34,645.723 1203.09,647.321 1203.83,647.951 1204.62,647.468 1205.37,641.797 1206.16,647.829 1206.91,647.764 1207.65,647.711 1208.44,647.673 1209.19,647.648 1209.98,641.012 1210.72,642.312 1211.47,646.816 1212.26,646.494 1213.01,646.208 1213.75,645.975 1214.54,645.802 1215.29,645.686 1216.08,645.623 1216.82,645.604 1217.57,645.621 1218.36,645.666 1219.11,645.733 1219.85,645.815 1220.64,645.908 1221.39,636.439 1222.18,645.457 1222.92,645.329 1223.67,644.452 1224.46,634.634 1225.21,641.197 1226,643.843 1226.74,643.588 1227.49,639.624 1228.28,643.064 1229.02,642.967 1229.77,642.943 1230.56,642.967 1231.31,643.024 1232.09,643.103 1232.84,643.196 1233.59,642.336 1234.38,643.07 1235.12,643.382 1235.91,643.468 1236.66,643.561 1237.41,643.658 1238.19,643.758 1238.94,643.857 1239.69,643.955 1240.48,644.054 1241.22,644.154 1242.01,644.255 1242.76,640.834 1243.5,641.764 1244.29,644.015 1245.04,643.99 1245.83,643.996 1246.58,644.024 1247.32,644.071 1248.11,644.13 1248.86,644.197 1249.6,644.269 1250.39,644.343 1251.14,641.685 1251.93,644.291 1252.68,644.303 1253.42,642.84 1254.21,641.917 1254.96,642.023 1255.75,640.014 1256.49,643.56 1257.24,640.46 1258.03,640.012 1258.78,642.831 1259.52,642.714 1260.31,642.655 1261.06,642.638 1261.85,642.649 1262.59,642.32 1263.34,636.134 1264.13,642.236 1264.88,642.152 1265.62,642.118 1266.41,642.118 1267.16,642.141 1267.95,642.178 1268.69,642.224 1269.44,642.278 1270.23,634.616 1270.98,604.312 1271.77,640.961 1272.51,617.224 1273.26,572.433 1274.05,640.103 1274.79,640.028 1275.54,640.007 1276.33,640.02 1277.08,640.053 1277.87,640.097 1278.61,640.148 1279.36,640.203 1280.15,611.26 1280.89,639.12 1281.68,640.089 1282.43,628.485 1283.18,640.057 1283.97,640.084 1284.71,608.651 1285.46,638.745 1286.25,640.003 1286.99,640.034 1287.78,640.077 1288.53,640.129 1289.28,629.541 1290.07,633.306 1290.81,640.089 1291.6,640.119 1292.35,509.133 1293.09,639.894 1293.88,578.206 1294.63,466.001 1295.38,609.248 1296.17,639.612 1296.91,599.016 1297.7,620.66 1298.45,612.755 1299.19,639.638 1299.98,639.686 1300.73,639.743" stroke-linecap="butt" stroke="#ff0000" stroke-width="0.5" stroke-linejoin="round"/>
   <polyline fill="none" points="1021.54,648.624 1021.54,54.0654" stroke-linecap="butt" stroke="#0000ff" stroke-width="2" stroke-dasharray="8,8,8,8" stroke-linejoin="round"/>
   <polyline fill="none" points="464.647,648.624 464.647,54.0654" stroke-linecap="butt" stroke="#00ff00" stroke-width="2" stroke-dasharray="8,8,8,8" stroke-linejoin="round"/>
   <text font-style="normal" transform="translate(679.339,102.858) rotate(-0,64.5,-18.5)" font-family="FreeSans" font-size="16" font-weight="normal" xml:space="preserve">
    <tspan fill="rgb(0,0,0)" x="0 11 20 23 27 36 41 50 54 58 67 76 80 89 98 103 107 116 125 " y="-24">Calibration period </tspan>
    <tspan fill="rgb(0,0,0)" x="22 33 45 55 59 68 72 81 85 94 103 " y="-1">KGE = 0.74 </tspan>
   </text>
   <text font-style="normal" transform="translate(1097.62,102.858) rotate(-0,63.5,-18.5)" font-family="FreeSans" font-size="16" font-weight="normal" xml:space="preserve">
    <tspan fill="rgb(0,0,0)" x="0 10 18 27 30 39 48 52 56 65 74 78 87 96 101 105 114 123 " y="-24">Evaluation period </tspan>
    <tspan fill="rgb(0,0,0)" x="23 34 46 56 60 69 73 82 86 95 " y="-1">KGE = 0.27</tspan>
   </text>
  </g>
  <clipPath id="cp001438728">
   <polygon points="0,728 1438,728 1438,0 0,0"/>
  </clipPath>
  <g clip-path="url(#cp001438728)">
   <polygon shape-rendering="crispEdges" fill="#ffffff" points="194.965,141.154 315.007,141.154 315.007,62.6699 194.965,62.6699"/>
   <polyline fill="none" points="194.965,141.154 315.007,141.154" stroke-linecap="square" stroke="#262626" stroke-width="0.5" stroke-dasharray="16,0" stroke-linejoin="miter"/>
   <polyline fill="none" points="194.965,62.6699 315.007,62.6699" stroke-linecap="square" stroke="#262626" stroke-width="0.5" stroke-dasharray="16,0" stroke-linejoin="miter"/>
   <polyline fill="none" points="194.965,141.154 194.965,62.6699" stroke-linecap="square" stroke="#262626" stroke-width="0.5" stroke-dasharray="16,0" stroke-linejoin="miter"/>
   <polyline fill="none" points="315.007,141.154 315.007,62.6699" stroke-linecap="square" stroke="#262626" stroke-width="0.5" stroke-dasharray="16,0" stroke-linejoin="miter"/>
   <polyline fill="none" points="198.97,74.1751 218.996,74.1751" stroke-linecap="butt" stroke="#000000" stroke-width="0.5" stroke-linejoin="round"/>
   <text font-style="normal" transform="translate(223.001,81.6751) rotate(-0,-0,-7.5)" font-family="FreeSans" font-size="14.4" font-weight="normal" xml:space="preserve">
    <tspan fill="rgb(0,0,0)" x="0 " y="-3">Q</tspan>
    <tspan fill="rgb(0,0,0)" x="11 16 22 " font-size="10.08" y="-0">obs</tspan>
   </text>
   <polyline fill="none" points="198.97,93.1804 218.996,93.1804" stroke-linecap="butt" stroke="#ff0000" stroke-width="0.5" stroke-linejoin="round"/>
   <text font-style="normal" transform="translate(223.001,100.68) rotate(-0,-0,-7.5)" font-family="FreeSans" font-size="14.4" font-weight="normal" xml:space="preserve">
    <tspan fill="rgb(0,0,0)" x="0 " y="-3">Q</tspan>
    <tspan fill="rgb(0,0,0)" x="11 16 18 " font-size="10.08" y="-0">sim</tspan>
   </text>
   <polyline fill="none" points="198.97,111.414 218.996,111.414" stroke-linecap="butt" stroke="#0000ff" stroke-width="2" stroke-dasharray="8,8,8,8" stroke-linejoin="round"/>
   <text font-style="normal" transform="translate(223.001,117.414) rotate(-0,-0,-6)" font-family="FreeSans" font-size="14.4" font-weight="normal" xml:space="preserve">
    <tspan fill="rgb(0,0,0)" x="0 10 18 21 25 29 33 37 46 53 61 " y="-0">Cal // Eval</tspan>
   </text>
   <polyline fill="none" points="198.97,129.649 218.996,129.649" stroke-linecap="butt" stroke="#00ff00" stroke-width="2" stroke-dasharray="8,8,8,8" stroke-linejoin="round"/>
   <text font-style="normal" transform="translate(223.001,137.149) rotate(-0,-0,-7.5)" font-family="FreeSans" font-size="14.4" font-weight="normal" xml:space="preserve">
    <tspan fill="rgb(0,0,0)" x="0 10 18 23 35 43 51 55 59 63 67 77 85 " y="-3">warmup // Cal</tspan>
   </text>
  </g>
 </g>
</svg>
