<?xml version='1.0' encoding='UTF-8' standalone='no'?>
<svg xmlns="http://www.w3.org/2000/svg" xmlns:xlink="http://www.w3.org/1999/xlink" viewBox="0 0 1438 728" width="1438pt" height="728pt">
 <title>gl2ps_renderer figure</title>
 <desc>
Creator: GL2PS 1.4.2, (C) 1999-2020 C. Geuzaine
For: Octave
CreationDate: Tue May 30 11:58:53 2023
</desc>
 <defs/>
 <polygon points="0,0 1438,0 1438,728 0,728" fill="#ffffff"/>
 <g>
  <polygon points="0,728 1438,728 1438,0 0,0" shape-rendering="crispEdges" fill="#ffffff"/>
  <clipPath id="cp001438728">
   <polygon points="0,728 1438,728 1438,0 0,0"/>
  </clipPath>
  <g clip-path="url(#cp001438728)">
   <polygon points="186.947,648.624 1301.52,648.624 1301.52,54.6594 186.947,54.6594" shape-rendering="crispEdges" fill="#ffffff"/>
   <polyline stroke-width="0.5" stroke-linecap="butt" stroke="#262626" points="186.947,648.624 186.947,643.052" stroke-linejoin="miter" fill="none"/>
   <polyline stroke-width="0.5" stroke-linecap="butt" stroke="#262626" points="186.947,54.6594 186.947,60.2317" stroke-linejoin="miter" fill="none"/>
   <polyline stroke-width="0.5" stroke-linecap="butt" stroke="#262626" points="465.393,648.624 465.393,643.052" stroke-linejoin="miter" fill="none"/>
   <polyline stroke-width="0.5" stroke-linecap="butt" stroke="#262626" points="465.393,54.6594 465.393,60.2317" stroke-linejoin="miter" fill="none"/>
   <polyline stroke-width="0.5" stroke-linecap="butt" stroke="#262626" points="743.839,648.624 743.839,643.052" stroke-linejoin="miter" fill="none"/>
   <polyline stroke-width="0.5" stroke-linecap="butt" stroke="#262626" points="743.839,54.6594 743.839,60.2317" stroke-linejoin="miter" fill="none"/>
   <polyline stroke-width="0.5" stroke-linecap="butt" stroke="#262626" points="1022.28,648.624 1022.28,643.052" stroke-linejoin="miter" fill="none"/>
   <polyline stroke-width="0.5" stroke-linecap="butt" stroke="#262626" points="1022.28,54.6594 1022.28,60.2317" stroke-linejoin="miter" fill="none"/>
   <polyline stroke-width="0.5" stroke-linecap="butt" stroke="#262626" points="1301.52,648.624 1301.52,643.052" stroke-linejoin="miter" fill="none"/>
   <polyline stroke-width="0.5" stroke-linecap="butt" stroke="#262626" points="1301.52,54.6594 1301.52,60.2317" stroke-linejoin="miter" fill="none"/>
   <text font-style="normal" font-family="FreeSans" font-size="16" xml:space="preserve" font-weight="normal" transform="translate(168.954,673.623) rotate(-0,18,-13)">
    <tspan y="-0" fill="rgb(38,38,38)" x="0 9 18 27 ">1989</tspan>
   </text>
   <text font-style="normal" font-family="FreeSans" font-size="16" xml:space="preserve" font-weight="normal" transform="translate(447.397,673.623) rotate(-0,18,-13)">
    <tspan y="-0" fill="rgb(38,38,38)" x="0 9 18 27 ">1990</tspan>
   </text>
   <text font-style="normal" font-family="FreeSans" font-size="16" xml:space="preserve" font-weight="normal" transform="translate(725.839,673.623) rotate(-0,18,-13)">
    <tspan y="-0" fill="rgb(38,38,38)" x="0 9 18 27 ">1991</tspan>
   </text>
   <text font-style="normal" font-family="FreeSans" font-size="16" xml:space="preserve" font-weight="normal" transform="translate(1004.28,673.623) rotate(-0,18,-13)">
    <tspan y="-0" fill="rgb(38,38,38)" x="0 9 18 27 ">1992</tspan>
   </text>
   <text font-style="normal" font-family="FreeSans" font-size="16" xml:space="preserve" font-weight="normal" transform="translate(1283.49,673.623) rotate(-0,18,-13)">
    <tspan y="-0" fill="rgb(38,38,38)" x="0 9 18 27 ">1993</tspan>
   </text>
   <polyline stroke-width="0.5" stroke-linecap="butt" stroke="#262626" points="186.947,648.624 192.564,648.624" stroke-linejoin="miter" fill="none"/>
   <polyline stroke-width="0.5" stroke-linecap="butt" stroke="#262626" points="1301.52,648.624 1295.9,648.624" stroke-linejoin="miter" fill="none"/>
   <polyline stroke-width="0.5" stroke-linecap="butt" stroke="#262626" points="186.947,549.63 192.564,549.63" stroke-linejoin="miter" fill="none"/>
   <polyline stroke-width="0.5" stroke-linecap="butt" stroke="#262626" points="1301.52,549.63 1295.9,549.63" stroke-linejoin="miter" fill="none"/>
   <polyline stroke-width="0.5" stroke-linecap="butt" stroke="#262626" points="186.947,450.636 192.564,450.636" stroke-linejoin="miter" fill="none"/>
   <polyline stroke-width="0.5" stroke-linecap="butt" stroke="#262626" points="1301.52,450.636 1295.9,450.636" stroke-linejoin="miter" fill="none"/>
   <polyline stroke-width="0.5" stroke-linecap="butt" stroke="#262626" points="186.947,351.642 192.564,351.642" stroke-linejoin="miter" fill="none"/>
   <polyline stroke-width="0.5" stroke-linecap="butt" stroke="#262626" points="1301.52,351.642 1295.9,351.642" stroke-linejoin="miter" fill="none"/>
   <polyline stroke-width="0.5" stroke-linecap="butt" stroke="#262626" points="186.947,252.648 192.564,252.648" stroke-linejoin="miter" fill="none"/>
   <polyline stroke-width="0.5" stroke-linecap="butt" stroke="#262626" points="1301.52,252.648 1295.9,252.648" stroke-linejoin="miter" fill="none"/>
   <polyline stroke-width="0.5" stroke-linecap="butt" stroke="#262626" points="186.947,153.653 192.564,153.653" stroke-linejoin="miter" fill="none"/>
   <polyline stroke-width="0.5" stroke-linecap="butt" stroke="#262626" points="1301.52,153.653 1295.9,153.653" stroke-linejoin="miter" fill="none"/>
   <polyline stroke-width="0.5" stroke-linecap="butt" stroke="#262626" points="186.947,54.6594 192.564,54.6594" stroke-linejoin="miter" fill="none"/>
   <polyline stroke-width="0.5" stroke-linecap="butt" stroke="#262626" points="1301.52,54.6594 1295.9,54.6594" stroke-linejoin="miter" fill="none"/>
   <text font-style="normal" font-family="FreeSans" font-size="16" xml:space="preserve" font-weight="normal" transform="translate(169.957,655.124) rotate(-0,9,-6.5)">
    <tspan y="-0" fill="rgb(38,38,38)" x="0 ">0</tspan>
   </text>
   <text font-style="normal" font-family="FreeSans" font-size="16" xml:space="preserve" font-weight="normal" transform="translate(160.957,556.13) rotate(-0,18,-6.5)">
    <tspan y="-0" fill="rgb(38,38,38)" x="0 9 ">10</tspan>
   </text>
   <text font-style="normal" font-family="FreeSans" font-size="16" xml:space="preserve" font-weight="normal" transform="translate(160.957,457.136) rotate(-0,18,-6.5)">
    <tspan y="-0" fill="rgb(38,38,38)" x="0 9 ">20</tspan>
   </text>
   <text font-style="normal" font-family="FreeSans" font-size="16" xml:space="preserve" font-weight="normal" transform="translate(160.957,358.142) rotate(-0,18,-6.5)">
    <tspan y="-0" fill="rgb(38,38,38)" x="0 9 ">30</tspan>
   </text>
   <text font-style="normal" font-family="FreeSans" font-size="16" xml:space="preserve" font-weight="normal" transform="translate(160.957,259.148) rotate(-0,18,-6.5)">
    <tspan y="-0" fill="rgb(38,38,38)" x="0 9 ">40</tspan>
   </text>
   <text font-style="normal" font-family="FreeSans" font-size="16" xml:space="preserve" font-weight="normal" transform="translate(160.957,160.153) rotate(-0,18,-6.5)">
    <tspan y="-0" fill="rgb(38,38,38)" x="0 9 ">50</tspan>
   </text>
   <text font-style="normal" font-family="FreeSans" font-size="16" xml:space="preserve" font-weight="normal" transform="translate(160.957,61.1593) rotate(-0,18,-6.5)">
    <tspan y="-0" fill="rgb(38,38,38)" x="0 9 ">60</tspan>
   </text>
   <polyline stroke-width="0.5" stroke-linecap="square" stroke="#262626" points="186.947,648.624 1301.52,648.624" stroke-linejoin="miter" stroke-dasharray="16,0" fill="none"/>
   <polyline stroke-width="0.5" stroke-linecap="square" stroke="#262626" points="186.947,54.6594 1301.52,54.6594" stroke-linejoin="miter" stroke-dasharray="16,0" fill="none"/>
   <polyline stroke-width="0.5" stroke-linecap="square" stroke="#262626" points="186.947,648.624 186.947,54.6594" stroke-linejoin="miter" stroke-dasharray="16,0" fill="none"/>
   <polyline stroke-width="0.5" stroke-linecap="square" stroke="#262626" points="1301.52,648.624 1301.52,54.6594" stroke-linejoin="miter" stroke-dasharray="16,0" fill="none"/>
   <text font-style="normal" font-family="FreeSans" font-size="17.6" xml:space="preserve" font-weight="normal" transform="translate(713.221,696.623) rotate(-0,31,-18)">
    <tspan y="-4" fill="rgb(38,38,38)" x="0 11 15 29 38 42 47 57 ">Time [d]</tspan>
   </text>
   <text font-style="normal" font-family="FreeSans" font-size="17.6" xml:space="preserve" font-weight="normal" transform="translate(83.9574,351.642) rotate(-90,72,0)">
    <tspan y="-4" fill="rgb(38,38,38)" x="0 12 17 23 32 42 56 61 65 74 87 91 96 110 124 129 139 ">Streamflow [mm/d]</tspan>
   </text>
   <text font-style="normal" font-family="FreeSans" font-size="17.6" xml:space="preserve" font-weight="bold" transform="translate(572.721,44.6593) rotate(-0,171.5,0)">
    <tspan y="-1" fill="rgb(0,0,0)" x="0 15 26 37 47 52 57 67 77 82 87 98 105 115 121 126 137 148 153 163 174 185 190 200 210 220 225 236 246 252 257 268 279 284 291 301 311 322 327 333 ">Model calibration and evaluation results</tspan>
   </text>
   <polyline stroke-width="0.5" stroke-linecap="butt" stroke="#000000" points="186.947,585.083 187.737,597.791 188.483,615.708 189.273,623.207 190.019,627.853 190.765,628.707 191.555,629.082 192.301,625.291 193.047,621.124 193.837,625.916 194.583,619.666 195.373,445.5 196.119,304.875 196.865,522.999 197.655,501.541 198.401,574.874 199.191,604.041 199.937,615.291 200.683,608.208 201.473,600.708 202.219,605.916 202.965,609.666 203.755,612.583 204.501,615.083 205.291,616.958 206.037,617.999 206.783,617.374 207.573,617.583 208.319,615.916 209.109,610.499 209.855,609.874 210.601,610.291 211.391,612.166 212.137,612.374 212.883,611.749 213.673,612.166 214.419,613.416 215.208,614.458 215.955,615.708 216.701,617.374 217.49,618.624 218.237,619.666 219.026,620.499 219.772,621.124 220.518,558.208 221.308,516.958 222.054,484.041 222.8,528.416 223.59,528.416 224.336,493 225.126,514.041 225.872,419.458 226.618,469.458 227.408,589.041 228.154,609.458 228.9,618.833 229.69,624.041 230.436,623.624 231.226,605.291 231.972,607.791 232.718,617.374 233.508,622.582 234.254,625.707 235.044,547.166 235.79,398.625 236.536,558.208 237.326,600.916 238.072,614.041 238.818,621.124 239.608,625.082 240.354,627.937 241.144,630.041 241.89,631.728 242.636,633.103 243.426,634.499 244.172,635.707 244.962,636.249 245.708,636.582 246.454,636.666 247.244,636.041 247.99,636.187 248.736,636.937 249.526,636.832 250.272,636.728 251.062,637.062 251.808,637.291 252.554,637.874 253.344,638.27 254.09,638.312 254.88,636.332 255.626,634.937 256.372,636.124 257.162,625.082 257.908,544.666 258.654,484.875 259.444,583.624 260.19,599.249 260.98,601.958 261.726,612.374 262.472,620.916 263.262,625.916 264.008,628.52 264.798,630.374 265.544,631.874 266.29,632.582 267.08,633.666 267.826,634.916 268.572,635.957 269.362,636.437 270.108,636.812 270.898,637.395 271.644,637.791 272.39,637.999 273.18,638.145 273.926,638.666 274.672,639.312 275.462,639.582 276.208,639.874 276.998,640.103 277.744,640.312 278.49,639.978 279.28,639.478 280.026,640.145 280.815,640.353 281.562,638.728 282.308,636.332 283.097,637.27 283.844,638.166 284.59,638.353 285.379,638.166 286.125,638.749 286.915,639.395 287.661,639.749 288.407,639.895 289.197,639.353 289.943,639.457 290.733,640.166 291.479,640.457 292.225,640.457 293.015,599.041 293.761,557.999 294.507,616.541 295.297,623.416 296.043,626.541 296.833,630.978 297.579,633.291 298.325,631.603 299.115,632.999 299.861,635.624 300.651,636.916 301.397,637.832 302.143,638.582 302.933,639.228 303.679,633.52 304.425,635.374 305.215,637.52 305.961,638.207 306.751,639.02 307.497,639.562 308.243,639.624 309.033,639.624 309.779,640.145 310.569,639.457 311.315,632.478 312.061,629.749 312.851,583.416 313.597,576.333 314.343,610.708 315.133,622.582 315.879,625.499 316.669,624.041 317.415,627.374 318.161,621.124 318.951,626.749 319.697,630.999 320.443,634.541 321.233,636.166 321.979,636.687 322.769,633.978 323.515,617.791 324.261,625.082 325.051,619.249 325.797,604.874 326.587,555.708 327.333,569.874 328.079,599.041 328.869,601.124 329.615,611.749 330.361,595.499 331.151,615.499 331.897,624.666 332.687,618.624 333.433,605.083 334.179,617.583 334.969,625.291 335.715,630.249 336.505,632.395 337.251,633.145 337.997,635.249 338.787,635.437 339.533,631.916 340.279,634.832 341.069,636.666 341.815,637.478 342.605,637.916 343.351,638.207 344.097,638.666 344.887,639.332 345.633,639.77 346.422,640.103 347.169,640.374 347.915,640.291 348.704,634.728 349.451,636.728 350.197,638.645 350.986,639.853 351.732,640.499 352.522,640.895 353.268,640.999 354.014,641.249 354.804,641.707 355.55,641.978 356.34,642.041 357.086,642.187 357.832,642.332 358.622,642.478 359.368,642.562 360.114,642.645 360.904,642.687 361.65,642.041 362.44,642.332 363.186,642.666 363.932,642.832 364.722,642.978 365.468,643.062 366.214,642.978 367.004,643.062 367.75,643.103 368.54,642.916 369.286,641.437 370.032,642.416 370.822,642.541 371.568,637.916 372.358,638.853 373.104,638.895 373.85,638.832 374.64,641.124 375.386,641.916 376.132,642.312 376.922,642.562 377.668,642.666 378.458,642.749 379.204,641.999 379.95,642.062 380.74,642.541 381.486,642.166 382.276,638.124 383.022,637.52 383.768,638.707 384.558,639.52 385.304,640.77 386.05,641.52 386.84,642.041 387.586,642.457 388.376,642.52 389.122,642.249 389.868,641.812 390.658,641.895 391.404,640.499 392.194,639.853 392.94,640.353 393.686,640.666 394.476,634.624 395.222,613.624 395.968,607.583 396.758,625.916 397.504,633.103 398.294,636.082 399.04,637.437 399.786,638.395 400.576,639.166 401.322,639.645 402.112,640.02 402.858,640.332 403.604,640.582 404.394,640.812 405.14,640.999 405.886,641.145 406.676,641.207 407.422,637.582 408.212,633.437 408.958,637.207 409.704,638.541 410.494,639.332 411.24,640.02 411.986,640.353 412.776,640.624 413.522,640.895 414.311,641.082 415.057,641.27 415.804,641.582 416.593,641.707 417.339,641.791 418.129,641.791 418.875,641.791 419.621,641.791 420.411,641.853 421.157,641.957 421.903,641.999 422.693,641.52 423.439,639.77 424.229,634.728 424.975,625.082 425.721,630.707 426.511,634.874 427.257,636.666 428.047,637.77 428.793,636.207 429.539,614.458 430.329,587.166 431.075,607.166 431.821,622.791 432.611,629.353 433.357,632.812 434.147,634.603 434.893,635.541 435.639,633.041 436.429,632.27 437.175,634.374 437.965,635.437 438.711,636.291 439.457,636.978 440.247,637.77 440.993,638.437 441.739,638.916 442.529,639.353 443.275,639.687 444.065,639.978 444.811,640.103 445.557,640.187 446.347,640.291 447.093,640.291 447.883,640.062 448.629,640.062 449.375,640.291 450.165,640.291 450.911,640.374 451.657,640.624 452.447,640.582 453.193,640.52 453.983,640.791 454.729,640.874 455.475,640.728 456.265,640.374 457.011,640.603 457.801,641.27 458.547,641.062 459.293,639.895 460.083,640.77 460.829,640.937 461.575,641.082 462.365,641.103 463.111,641.228 463.901,639.457 464.647,584.458 465.393,557.791 466.183,607.791 466.929,621.124 467.675,618.208 468.465,605.291 469.211,616.958 470.001,623.416 470.747,626.749 471.493,628.749 472.283,630.999 473.029,632.853 473.819,634.332 474.565,635.603 475.311,636.562 476.101,637.187 476.847,637.687 477.593,637.895 478.383,635.791 479.129,635.166 479.918,635.937 480.664,620.916 481.411,619.249 482.2,624.874 482.946,628.166 483.736,630.187 484.482,631.937 485.228,633.603 486.018,635.082 486.764,632.999 487.51,623.207 488.3,624.457 489.046,627.874 489.836,626.749 490.582,485.916 491.328,167.375 492.118,488.208 492.864,594.249 493.654,610.083 494.4,618.208 495.146,622.582 495.936,537.999 496.682,532.374 497.428,595.916 498.218,611.124 498.964,618.624 499.754,623.207 500.5,610.291 501.246,601.958 502.036,616.958 502.782,622.374 503.572,625.707 504.318,628.541 505.064,629.062 505.854,629.937 506.6,632.041 507.346,633.853 508.136,634.937 508.882,635.603 509.672,636.041 510.418,636.332 511.164,635.207 511.954,630.916 512.7,629.707 513.446,631.145 514.236,632.249 514.982,633.082 515.772,629.791 516.518,602.791 517.264,590.499 518.054,607.999 518.8,617.791 519.59,623.416 520.336,626.124 521.082,621.332 521.872,548.416 522.618,570.708 523.364,601.749 524.154,614.249 524.9,621.124 525.69,625.082 526.436,627.374 527.182,629.353 527.972,630.916 528.718,632.082 529.508,633.249 530.254,634.332 531,635.27 531.79,635.562 532.536,635.728 533.282,634.457 534.072,635.624 534.818,636.687 535.608,637.312 536.354,637.624 537.1,637.832 537.89,637.562 538.636,636.853 539.426,637.52 540.172,638.041 540.918,638.082 541.708,637.749 542.454,637.853 543.2,638.207 543.99,638.353 544.736,638.353 545.525,638.353 546.271,638.291 547.018,637.791 547.807,638.145 548.553,638.457 549.343,621.124 550.089,601.541 550.835,620.499 551.625,627.374 552.371,630.645 553.117,632.582 553.907,634.207 554.653,634.853 555.443,635.041 556.189,636.041 556.935,636.77 557.725,634.603 558.471,629.27 559.217,631.791 560.007,630.707 560.753,630.562 561.543,633.082 562.289,634.749 563.035,635.624 563.825,635.812 564.571,636.624 565.361,637.062 566.107,636.082 566.853,636.895 567.643,637.832 568.389,638.291 569.135,637.332 569.925,636.749 570.671,638.082 571.461,631.645 572.207,590.083 572.953,604.458 573.743,617.374 574.489,624.249 575.279,628.624 576.025,631.416 576.771,632.666 577.561,633.457 578.307,635.374 579.053,636.853 579.843,637.853 580.589,638.541 581.379,639.187 582.125,636.582 582.871,636.082 583.661,638.062 584.407,638.978 585.197,639.499 585.943,639.978 586.689,640.27 587.479,640.582 588.225,640.937 588.971,641.187 589.761,641.374 590.507,641.457 591.297,641.145 592.043,640.499 592.789,641.166 593.579,641.52 594.325,641.687 595.115,641.707 595.861,639.645 596.607,637.937 597.397,638.478 598.143,640.187 598.889,641.062 599.679,641.52 600.425,641.77 601.215,641.957 601.961,642.145 602.707,642.291 603.497,642.395 604.243,642.457 604.989,642.541 605.779,642.728 606.525,642.895 607.315,642.999 608.061,643.02 608.807,642.957 609.596,642.853 610.343,642.791 611.132,642.145 611.878,633.187 612.625,631.041 613.414,637.582 614.16,640.124 614.906,641.103 615.696,641.624 616.442,641.937 617.232,642.166 617.978,642.291 618.724,642.312 619.514,642.27 620.26,641.582 621.05,640.999 621.796,641.812 622.542,642.332 623.332,642.541 624.078,642.687 624.824,642.791 625.614,642.978 626.36,643.103 627.15,643.187 627.896,643.249 628.642,643.353 629.432,643.395 630.178,643.124 630.968,642.562 631.714,642.728 632.46,643.145 633.25,643.374 633.996,643.52 634.742,643.603 635.532,643.687 636.278,643.791 637.068,643.832 637.814,643.832 638.56,643.916 639.35,644.062 640.096,644.187 640.886,644.291 641.632,644.395 642.378,644.291 643.168,644.041 643.914,644.27 644.66,644.312 645.45,644.353 646.196,644.437 646.986,644.52 647.732,644.582 648.478,644.666 649.268,644.728 650.014,644.832 650.76,644.832 651.55,644.874 652.296,644.874 653.086,644.874 653.832,644.916 654.578,644.957 655.368,644.978 656.114,644.874 656.904,644.395 657.65,644.437 658.396,644.166 659.186,643.937 659.932,644.02 660.678,644.041 661.468,644.041 662.214,643.853 663.004,644.103 663.75,644.374 664.496,644.457 665.286,644.478 666.032,644.457 666.822,644.249 667.568,644.187 668.314,644.374 669.104,644.416 669.85,644.478 670.596,644.52 671.386,644.582 672.132,644.645 672.922,644.728 673.668,645.062 674.414,645.062 675.203,645.062 675.95,644.124 676.739,642.187 677.485,643.124 678.232,643.957 679.021,643.603 679.767,640.041 680.513,642.124 681.303,643.124 682.049,643.624 682.839,643.832 683.585,643.895 684.331,643.999 685.121,644.082 685.867,644.082 686.657,642.978 687.403,641.624 688.149,642.707 688.939,643.249 689.685,642.874 690.431,640.332 691.221,640.957 691.967,642.124 692.757,642.749 693.503,643.02 694.249,643.249 695.039,643.499 695.785,643.582 696.531,643.624 697.321,643.645 698.067,643.645 698.857,643.687 699.603,643.645 700.349,643.416 701.139,642.999 701.885,642.791 702.675,642.957 703.421,642.187 704.167,630.312 704.957,634.937 705.703,639.124 706.449,641.02 707.239,641.895 707.985,642.332 708.775,642.541 709.521,642.228 710.267,642.062 711.057,642.062 711.803,642.082 712.593,642.187 713.339,642.249 714.085,642.187 714.875,641.957 715.621,641.978 716.367,642.145 717.157,642.228 717.903,641.249 718.693,637.582 719.439,638.749 720.185,640.041 720.975,640.957 721.721,625.707 722.511,597.166 723.257,623.832 724.003,631.312 724.793,634.895 725.539,636.457 726.285,637.582 727.075,638.437 727.821,639.103 728.611,639.603 729.357,640.124 730.103,640.437 730.893,640.437 731.639,640.562 732.429,640.082 733.175,628.02 733.921,605.499 734.711,617.583 735.457,601.124 736.203,479.875 736.993,477.375 737.739,577.999 738.529,607.999 739.275,618.624 740.021,622.791 740.81,598.624 741.557,602.166 742.303,603.833 743.092,527.166 743.839,582.999 744.628,610.083 745.374,619.874 746.12,624.666 746.91,627.374 747.656,629.916 748.446,626.749 749.192,621.124 749.938,625.082 750.728,626.749 751.474,611.749 752.22,611.541 753.01,619.249 753.756,624.666 754.546,627.374 755.292,628.832 756.038,630.291 756.828,632.166 757.574,633.437 758.364,634.249 759.11,635.166 759.856,636.207 760.646,637.082 761.392,637.895 762.138,638.374 762.928,638.791 763.674,639.082 764.464,639.145 765.21,639.207 765.956,639.374 766.746,639.603 767.492,639.937 768.282,639.957 769.028,639.999 769.774,640.062 770.564,639.978 771.31,638.478 772.056,637.916 772.846,638.062 773.592,638.353 774.382,638.52 775.128,638.707 775.874,638.999 776.664,635.853 777.41,604.874 778.2,608.624 778.946,621.541 779.692,611.333 780.482,367.375 781.228,144.459 781.974,273.625 782.764,559.874 783.51,597.791 784.3,610.291 785.046,617.166 785.792,622.791 786.582,625.707 787.328,628.228 788.118,630.457 788.864,630.937 789.61,625.082 790.4,624.874 791.146,624.457 791.892,625.916 792.682,627.582 793.428,629.207 794.218,630.895 794.964,632.312 795.71,633.52 796.5,634.395 797.246,634.832 797.992,634.791 798.782,635.249 799.528,636.124 800.318,636.791 801.064,637.207 801.81,636.687 802.6,636.749 803.346,637.395 804.135,637.791 804.882,637.374 805.628,556.333 806.417,582.999 807.164,612.791 807.91,621.749 808.699,625.916 809.445,627.582 810.235,610.083 810.981,534.874 811.727,585.499 812.517,607.999 813.263,617.374 814.053,622.999 814.799,626.541 815.545,628.249 816.335,630.124 817.081,631.77 817.827,632.395 818.617,631.687 819.363,632.416 820.153,633.437 820.899,633.082 821.645,632.041 822.435,619.041 823.181,549.666 823.971,568.624 824.717,604.874 825.463,616.333 826.253,619.874 826.999,607.166 827.745,616.124 828.535,622.791 829.281,626.124 830.071,629.02 830.817,631.145 831.563,632.582 832.353,633.395 833.099,631.041 833.889,574.458 834.635,549.249 835.381,595.916 836.171,614.041 836.917,621.541 837.663,624.249 838.453,615.083 839.199,608.208 839.989,618.416 840.735,624.249 841.481,619.874 842.271,618.833 843.017,606.333 843.763,571.958 844.553,579.249 845.299,598.833 846.089,613.624 846.835,621.541 847.581,626.124 848.371,616.749 849.117,601.541 849.907,604.666 850.653,616.541 851.399,625.291 852.189,628.791 852.935,630.978 853.681,631.478 854.471,427.791 854.676,54.0654" stroke-linejoin="round" fill="none"/>
   <polyline stroke-width="0.5" stroke-linecap="butt" stroke="#000000" points="855.946,54.0654 856.007,136.126 856.753,554.874 857.499,597.583 858.289,611.958 859.035,619.041 859.825,620.916 860.571,625.499 861.317,628.062 862.107,624.666 862.853,626.749 863.599,630.499 864.389,632.291 865.135,633.812 865.925,634.874 866.671,635.478 867.417,635.457 868.207,635.978 868.953,635.707 869.742,635.999 870.489,635.666 871.235,636.77 872.024,637.728 872.771,638.249 873.517,638.562 874.306,638.541 875.052,636.249 875.842,633.895 876.588,629.666 877.334,628.166 878.124,632.145 878.87,634.978 879.66,636.312 880.406,637.166 881.152,637.77 881.942,638.332 882.688,638.874 883.434,636.77 884.224,638.353 884.97,638.228 885.76,639.166 886.506,639.541 887.252,639.728 888.042,639.624 888.788,639.541 889.534,639.687 890.324,639.978 891.07,640.416 891.86,640.707 892.606,640.957 893.352,641.207 894.142,641.082 894.888,641.103 895.678,640.77 896.424,641.124 897.17,641.499 897.96,641.812 898.706,641.999 899.452,641.562 900.242,640.478 900.988,640.27 901.778,640.874 902.524,641.291 903.27,641.624 904.06,641.812 904.806,642.02 905.596,642.291 906.342,642.499 907.088,642.624 907.878,642.687 908.624,642.749 909.37,641.999 910.16,642.02 910.906,642.416 911.696,642.541 912.442,638.437 913.188,637.562 913.978,640.166 914.724,641.249 915.514,641.666 916.26,641.853 917.006,642.166 917.796,642.249 918.542,641.937 919.288,641.645 920.078,642.103 920.824,642.395 921.614,642.52 922.36,642.645 923.106,642.832 923.896,642.916 924.642,642.853 925.432,642.437 926.178,642.457 926.924,642.041 927.714,637.582 928.46,639.999 929.206,641.312 929.996,641.999 930.742,642.395 931.532,642.645 932.278,642.749 933.024,642.832 933.814,643.041 934.56,643.207 935.306,643.291 936.096,642.187 936.842,642.249 937.631,642.749 938.378,642.957 939.124,643.207 939.913,643.332 940.659,643.478 941.449,643.562 942.195,643.624 942.941,643.437 943.731,643.353 944.477,643.603 945.223,643.645 946.013,643.645 946.759,643.541 947.549,642.582 948.295,641.353 949.041,642.353 949.831,642.957 950.577,643.207 951.367,643.353 952.113,643.728 952.859,643.832 953.649,643.853 954.395,643.957 955.141,643.937 955.931,643.457 956.677,643.312 957.467,643.353 958.213,643.478 958.959,643.478 959.749,643.478 960.495,643.478 961.285,643.437 962.031,643.478 962.777,643.416 963.567,643.145 964.313,643.082 965.059,643.082 965.849,643.103 966.595,643.145 967.385,643.27 968.131,643.374 968.877,642.957 969.667,641.832 970.413,629.228 971.203,633.562 971.949,637.228 972.695,636.457 973.485,638.978 974.231,640.291 974.977,641.062 975.767,641.228 976.513,640.957 977.303,641.228 978.049,641.749 978.795,642.062 979.585,642.228 980.331,642.312 981.077,642.374 981.867,642.499 982.613,642.582 983.403,642.624 984.149,642.666 984.895,642.707 985.685,642.749 986.431,642.77 987.221,642.77 987.967,642.77 988.713,642.77 989.503,642.77 990.249,642.27 990.995,639.77 991.785,639.291 992.531,639.207 993.321,639.999 994.067,640.707 994.813,640.832 995.603,640.999 996.349,640.957 997.139,640.978 997.885,638.27 998.631,457.375 999.421,300.708 1000.17,117.376 1000.91,484.458 1001.7,598.833 1002.45,614.666 1003.24,622.582 1003.98,627.166 1004.73,621.749 1005.52,584.249 1006.27,604.041 1007.06,617.166 1007.8,616.749 1008.55,593.416 1009.34,607.166 1010.08,618.208 1010.83,624.041 1011.62,627.999 1012.37,630.728 1013.16,632.562 1013.9,633.832 1014.65,634.603 1015.44,634.291 1016.18,630.937 1016.97,630.395 1017.72,632.312 1018.47,633.707 1019.26,634.249 1020,633.999 1020.75,634.457 1021.54,635.27 1022.28,635.895 1023.07,636.312 1023.82,635.187 1024.57,634.957 1025.36,635.541 1026.1,636.041 1026.85,636.52 1027.64,636.707 1028.38,635.832 1029.17,635.978 1029.92,636.666 1030.67,636.937 1031.46,635.957 1032.2,628.02 1032.99,619.874 1033.74,627.166 1034.48,630.249 1035.27,631.978 1036.02,633.562 1036.77,634.853 1037.56,635.582 1038.3,636.062 1039.09,635.937 1039.84,635.895 1040.58,636.687 1041.37,637.416 1042.12,637.957 1042.91,638.228 1043.66,638.395 1044.4,638.645 1045.19,639.02 1045.94,639.062 1046.68,639.249 1047.47,639.437 1048.22,639.603 1049.01,639.687 1049.76,639.874 1050.5,640.207 1051.29,640.395 1052.04,640.603 1052.83,640.791 1053.57,640.874 1054.32,640.895 1055.11,640.895 1055.86,640.77 1056.6,639.624 1057.39,639.124 1058.14,639.166 1058.93,636.228 1059.67,635.27 1060.42,635.749 1061.21,636.624 1061.96,637.291 1062.75,632.228 1063.49,615.708 1064.24,620.082 1065.03,610.291 1065.77,594.666 1066.52,612.999 1067.31,621.958 1068.06,627.166 1068.85,630.312 1069.59,632.103 1070.34,633.562 1071.13,634.77 1071.87,635.374 1072.62,636.228 1073.41,637.103 1074.16,636.291 1074.95,392.375 1075.69,469.25 1076.44,593.416 1077.23,611.124 1077.97,620.708 1078.76,625.916 1079.51,629.332 1080.26,631.687 1081.05,628.395 1081.79,610.499 1082.54,616.333 1083.33,622.791 1084.07,625.916 1084.86,625.916 1085.61,627.166 1086.36,629.645 1087.15,630.916 1087.89,631.978 1088.68,632.916 1089.43,633.812 1090.17,633.478 1090.96,633.228 1091.71,634.499 1092.46,635.332 1093.25,636.041 1093.99,636.478 1094.78,636.937 1095.53,637.395 1096.27,637.541 1097.06,637.562 1097.81,637.937 1098.6,638.249 1099.34,638.562 1100.09,638.832 1100.88,639.082 1101.63,639.312 1102.37,639.416 1103.16,638.145 1103.91,638.207 1104.7,638.895 1105.44,639.02 1106.19,637.624 1106.98,634.124 1107.73,633.52 1108.52,635.145 1109.26,636.312 1110.01,637.103 1110.8,637.791 1111.54,638.207 1112.29,638.582 1113.08,638.916 1113.83,639.228 1114.62,639.499 1115.36,639.812 1116.11,640.082 1116.9,640.374 1117.64,640.624 1118.39,640.728 1119.18,640.853 1119.93,640.978 1120.72,641.082 1121.46,641.187 1122.21,641.312 1123,641.332 1123.74,635.249 1124.53,635.02 1125.28,638.541 1126.03,639.937 1126.82,640.478 1127.56,640.832 1128.31,639.582 1129.1,639.874 1129.84,640.541 1130.63,639.312 1131.38,640.416 1132.13,641.228 1132.92,641.353 1133.66,641.353 1134.45,641.374 1135.2,641.52 1135.94,641.457 1136.73,639.874 1137.48,639.666 1138.23,641.082 1139.02,641.478 1139.76,640.228 1140.55,631.957 1141.3,627.791 1142.04,622.999 1142.83,626.332 1143.58,629.353 1144.37,630.603 1145.12,632.374 1145.86,633.624 1146.65,634.457 1147.4,634.874 1148.14,635.916 1148.93,636.853 1149.68,637.374 1150.47,639.645 1151.22,640.187 1151.96,638.916 1152.75,639.103 1153.5,632.937 1154.29,637.999 1155.03,639.978 1155.78,640.77 1156.57,641.145 1157.32,633.02 1158.06,611.124 1158.85,628.874 1159.6,634.832 1160.39,637.374 1161.13,637.291 1161.88,638.166 1162.67,637.874 1163.42,632.707 1164.21,629.27 1164.95,612.999 1165.7,622.582 1166.49,630.062 1167.23,633.957 1167.98,636.457 1168.77,637.874 1169.52,638.853 1170.31,639.666 1171.05,640.27 1171.8,640.02 1172.59,639.562 1173.33,640.082 1174.08,640.645 1174.87,641.166 1175.62,641.582 1176.41,641.457 1177.15,640.395 1177.9,639.916 1178.69,640.207 1179.43,640.582 1180.22,639.978 1180.97,640.874 1181.72,641.499 1182.51,641.853 1183.25,641.937 1184,641.082 1184.79,640.541 1185.53,641.437 1186.32,641.957 1187.07,641.895 1187.82,641.603 1188.61,641.978 1189.35,641.999 1190.14,642.166 1190.89,642.374 1191.63,642.437 1192.42,642.416 1193.17,642.103 1193.92,641.978 1194.71,642.499 1195.45,642.624 1196.24,641.478 1196.99,642.416 1197.73,642.728 1198.52,642.937 1199.27,643.02 1200.06,643.124 1200.81,643.166 1201.55,643.082 1202.34,642.749 1203.09,641.77 1203.83,641.103 1204.62,641.499 1205.37,618.208 1206.16,627.374 1206.91,635.791 1207.65,638.437 1208.44,639.728 1209.19,639.166 1209.98,557.999 1210.72,578.624 1211.47,617.999 1212.26,626.541 1213.01,630.687 1213.75,634.603 1214.54,636.832 1215.29,638.187 1216.08,639.291 1216.82,640.187 1217.57,640.77 1218.36,641.166 1219.11,641.499 1219.85,641.812 1220.64,641.853 1221.39,629.728 1222.18,623.832 1222.92,632.624 1223.67,636.228 1224.46,631.187 1225.21,619.666 1226,625.499 1226.74,631.999 1227.49,634.582 1228.28,622.791 1229.02,629.124 1229.77,634.645 1230.56,636.957 1231.31,638.228 1232.09,638.832 1232.84,639.437 1233.59,639.853 1234.38,640.124 1235.12,640.52 1235.91,640.874 1236.66,641.145 1237.41,641.312 1238.19,641.457 1238.94,641.437 1239.69,641.624 1240.48,641.749 1241.22,641.541 1242.01,641.707 1242.76,641.353 1243.5,640.52 1244.29,641.041 1245.04,641.499 1245.83,641.707 1246.58,641.728 1247.32,641.562 1248.11,641.582 1248.86,641.645 1249.6,641.874 1250.39,641.957 1251.14,641.749 1251.93,640.916 1252.68,640.853 1253.42,641.124 1254.21,640.707 1254.96,640.916 1255.75,640.624 1256.49,639.832 1257.24,639.499 1258.03,638.52 1258.78,638.416 1259.52,639.082 1260.31,639.749 1261.06,640.207 1261.85,640.562 1262.59,640.728 1263.34,640.103 1264.13,637.52 1264.88,636.582 1265.62,638.062 1266.41,638.978 1267.16,639.478 1267.95,639.603 1268.69,639.853 1269.44,640.02 1270.23,638.437 1270.98,620.082 1271.77,613.416 1272.51,626.124 1273.26,626.957 1274.05,618.833 1274.79,625.082 1275.54,629.437 1276.33,631.978 1277.08,633.812 1277.87,635.207 1278.61,636.228 1279.36,637.207 1280.15,637.812 1280.89,637.874 1281.68,638.457 1282.43,638.832 1283.18,639.082 1283.97,639.103 1284.71,638.082 1285.46,637.728 1286.25,638.228 1286.99,638.582 1287.78,638.874 1288.53,639.124 1289.28,638.957 1290.07,638.832 1290.81,638.957 1291.6,639.124 1292.35,636.291 1293.09,631.895 1293.88,631.832 1294.63,619.666 1295.38,602.166 1296.17,613.624 1296.91,619.458 1297.7,623.207 1298.45,625.916 1299.19,628.062 1299.98,630.041 1300.73,631.562" stroke-linejoin="round" fill="none"/>
   <polyline stroke-width="0.5" stroke-linecap="butt" stroke="#ff0000" points="186.947,648.608 187.737,648.616 188.483,648.616 189.273,648.62 190.019,648.622 190.765,648.606 191.555,648.615 192.301,648.59 193.047,648.594 193.837,648.609 194.583,648.509 195.373,648.171 196.119,648.083 196.865,648.075 197.655,647.971 198.401,648.298 199.191,648.461 199.937,648.542 200.683,648.583 201.473,648.604 202.219,648.614 202.965,648.619 203.755,648.622 204.501,648.623 205.291,648.623 206.037,648.624 206.783,648.427 207.573,648.526 208.319,648.426 209.109,648.32 209.855,648.472 210.601,648.548 211.391,648.586 212.137,648.457 212.883,648.434 213.673,648.424 214.419,648.433 215.208,648.427 215.955,648.526 216.701,648.575 217.49,648.599 218.237,648.612 219.026,648.618 219.772,648.504 220.518,647.902 221.308,647.639 222.054,647.885 222.8,647.916 223.59,647.742 224.336,648.132 225.126,647.893 225.872,646.577 226.618,647.521 227.408,647.547 228.154,648.086 228.9,648.355 229.69,648.49 230.436,647.831 231.226,647.736 231.972,648.18 232.718,648.402 233.508,648.513 234.254,648.569 235.044,645.442 235.79,645.97 236.536,647.297 237.326,647.96 238.072,648.292 238.818,648.458 239.608,648.541 240.354,648.583 241.144,648.603 241.89,648.614 242.636,648.619 243.426,648.621 244.172,648.623 244.962,648.511 245.708,648.537 246.454,647.963 247.244,647.471 247.99,648.048 248.736,648.336 249.526,648.431 250.272,648.528 251.062,648.576 251.808,648.6 252.554,648.612 253.344,647.731 254.09,647.815 254.88,647.342 255.626,647.983 256.372,648.303 257.162,647.07 257.908,645.115 258.654,645.872 259.444,646.873 260.19,646.872 260.98,647.382 261.726,647.972 262.472,648.298 263.262,648.461 264.008,648.543 264.798,648.583 265.544,648.604 266.29,648.28 267.08,648.452 267.826,648.538 268.572,648.581 269.362,648.182 270.108,648.403 270.898,648.513 271.644,648.569 272.39,648.596 273.18,648.61 273.926,648.617 274.672,648.621 275.462,648.622 276.208,648.623 276.998,648.624 277.744,648.624 278.49,648.135 279.28,648.38 280.026,648.502 280.815,648.563 281.562,647.473 282.308,647.169 283.097,647.896 283.844,648.26 284.59,648.057 285.379,647.83 286.125,648.227 286.915,648.426 287.661,648.525 288.407,648.574 289.197,647.879 289.943,648.252 290.733,648.438 291.479,648.531 292.225,648.578 293.015,645.857 293.761,645.982 294.507,647.137 295.297,647.571 296.043,648.098 296.833,648.361 297.579,648.492 298.325,646.77 299.115,647.697 299.861,648.161 300.651,648.392 301.397,648.508 302.143,648.566 302.933,647.577 303.679,648.101 304.425,648.362 305.215,648.179 305.961,648.024 306.751,648.324 307.497,648.474 308.243,647.623 309.033,648.123 309.779,648.374 310.569,647.502 311.315,645.725 312.061,645.667 312.851,643.433 313.597,645.799 314.343,647.212 315.133,647.918 315.879,647.029 316.669,647.373 317.415,646.811 318.161,647.12 318.951,647.872 319.697,648.248 320.443,648.436 321.233,648.53 321.979,648.577 322.769,647.182 323.515,646.372 324.261,646.718 325.051,646.7 325.797,644.272 326.587,645.262 327.333,645.178 328.079,646.901 328.869,647.228 329.615,647.926 330.361,644.178 331.151,646.401 331.897,647.513 332.687,645.807 333.433,645.763 334.179,646.847 334.969,647.736 335.715,648.18 336.505,647.816 337.251,647.252 337.997,647.938 338.787,646.544 339.533,646.914 340.279,647.769 341.069,648.197 341.815,648.41 342.605,647.41 343.351,646.576 344.097,647.6 344.887,648.112 345.633,648.368 346.422,648.496 347.169,648.56 347.915,646.683 348.704,647.022 349.451,647.067 350.197,647.846 350.986,648.235 351.732,648.429 352.522,648.527 353.268,648.575 354.014,648.6 354.804,648.612 355.55,648.618 356.34,648.621 357.086,648.623 357.832,648.623 358.622,648.624 359.368,648.624 360.114,648.624 360.904,648.624 361.65,648.391 362.44,648.507 363.186,648.566 363.932,648.595 364.722,648.609 365.468,648.617 366.214,648.62 367.004,648.279 367.75,647.808 368.54,647.989 369.286,648.307 370.032,648.465 370.822,648.545 371.568,644.085 372.358,646.355 373.104,645.907 373.85,647.265 374.64,647.945 375.386,648.284 376.132,648.454 376.922,648.539 377.668,648.582 378.458,648.603 379.204,648.457 379.95,648.074 380.74,648.349 381.486,648.487 382.276,646.6 383.022,647.005 383.768,646.563 384.558,647.593 385.304,648.109 386.05,648.366 386.84,648.495 387.586,648.56 388.376,648.342 389.122,646.738 389.868,647.681 390.658,646.136 391.404,646.591 392.194,647.607 392.94,648.116 393.686,646.985 394.476,642.002 395.222,640.55 395.968,642.991 396.758,645.807 397.504,647.216 398.294,647.92 399.04,648.272 399.786,648.448 400.576,648.536 401.322,648.58 402.112,648.602 402.858,648.613 403.604,648.619 404.394,648.621 405.14,648.623 405.886,648.623 406.676,648.624 407.422,641.721 408.212,644.677 408.958,645.909 409.704,646.805 410.494,647.714 411.24,648.169 411.986,648.397 412.776,648.51 413.522,648.567 414.311,648.596 415.057,648.61 415.804,648.617 416.593,648.62 417.339,648.622 418.129,647.847 418.875,648.235 419.621,648.43 420.411,648.527 421.157,648.576 421.903,648.6 422.693,644.977 423.439,645.72 424.229,642.971 424.975,645.771 425.721,647.197 426.511,647.911 427.257,648.267 428.047,648.446 428.793,644.515 429.539,641.32 430.329,639.703 431.075,644.164 431.821,646.394 432.611,647.509 433.357,648.067 434.147,648.345 434.893,644.179 435.639,593.847 436.429,630.759 437.175,639.691 437.965,644.158 438.711,640.253 439.457,644.439 440.247,646.531 440.993,647.578 441.739,648.101 442.529,648.362 443.275,648.493 444.065,648.559 444.811,648.591 445.557,648.608 446.347,648.616 447.093,642.545 447.883,599.672 448.629,624.176 449.375,636.048 450.165,636.725 450.911,640.965 451.657,644.795 452.447,646.709 453.193,647.667 453.983,648.141 454.729,648.383 455.475,604.452 456.265,626.487 457.011,637.556 457.801,643.09 458.547,645.857 459.293,647.241 460.083,647.932 460.829,648.278 461.575,648.451 462.365,648.538 463.111,648.581 463.901,611.194 464.647,418.627 465.393,533.626 466.183,591.125 466.929,619.874 467.675,518.377 468.465,583.5 469.211,614.33 470.001,631.477 470.747,601.74 471.493,625.182 472.283,636.903 473.029,642.763 473.819,645.694 474.565,647.159 475.311,647.891 476.101,648.258 476.847,648.441 477.593,648.532 478.383,625.366 479.129,619.205 479.918,540.902 480.664,585.388 481.411,617.808 482.2,633.216 482.946,640.92 483.736,629.943 484.482,642.452 485.228,645.538 486.018,647.081 486.764,506.992 487.51,577.8 488.3,613.212 489.046,630.918 489.836,607.461 490.582,370.397 491.328,294 492.118,471.312 492.864,559.968 493.654,603.741 494.4,626.182 495.146,637.403 495.936,417.654 496.682,533.138 497.428,590.881 498.218,619.753 498.964,634.188 499.754,637.27 500.5,558.502 501.246,603.516 502.036,626.07 502.782,637.344 503.572,642.984 504.318,645.804 505.064,645.208 505.854,646.916 506.6,647.77 507.346,648.197 508.136,648.411 508.882,648.517 509.672,648.571 510.418,646.645 511.164,620.279 511.954,582.445 512.7,615.41 513.446,632.017 514.236,640.321 514.982,644.472 515.772,592.197 516.518,524.53 517.264,527.329 518.054,587.977 518.8,618.3 519.59,633.462 520.336,641.043 521.082,597.595 521.872,473.899 522.618,543.204 523.364,595.905 524.154,622.264 524.9,635.444 525.69,642.034 526.436,645.329 527.182,646.977 527.972,647.8 528.718,648.137 529.508,648.381 530.254,648.502 531,648.563 531.79,647.841 532.536,646.587 533.282,646.116 534.072,647.37 534.818,647.24 535.608,647.932 536.354,648.278 537.1,648.451 537.89,644.705 538.636,646.471 539.426,647.548 540.172,648.086 540.918,646.162 541.708,644.02 542.454,646.322 543.2,647.473 543.99,648.049 544.736,647.967 545.525,648.296 546.271,646.635 547.018,646.646 547.807,647.635 548.553,648.13 549.343,609.141 550.089,548.259 550.835,598.385 551.625,623.504 552.371,636.064 553.117,642.344 553.907,645.484 554.653,642.081 555.443,643.616 556.189,646.12 556.935,647.372 557.725,642.805 558.471,615.184 559.217,570.275 560.007,506.632 560.753,577.645 561.543,613.135 562.289,630.879 563.035,639.02 563.825,642.445 564.571,645.535 565.361,647.079 566.107,644.011 566.853,646.318 567.643,647.471 568.389,648.047 569.135,643.066 569.925,645.845 570.671,647.234 571.461,635.759 572.207,537.247 572.953,557.351 573.743,610.305 574.489,629.465 575.279,639.044 576.025,643.834 576.771,645.185 577.561,645.925 578.307,647.274 579.053,647.949 579.843,648.287 580.589,648.455 581.379,648.54 582.125,637.108 582.871,642.866 583.661,645.745 584.407,647.185 585.197,647.904 585.943,648.264 586.689,648.444 587.479,648.534 588.225,648.579 588.971,648.602 589.761,648.613 590.507,648.557 591.297,646.779 592.043,647.702 592.789,648.163 593.579,648.393 594.325,648.502 595.115,648.563 595.861,642.453 596.607,642.574 597.397,645.599 598.143,647.112 598.889,647.868 599.679,648.246 600.425,648.435 601.215,648.53 601.961,648.577 602.707,648.6 603.497,648.612 604.243,648.618 604.989,648.621 605.779,648.623 606.525,648.623 607.315,648.624 608.061,648.624 608.807,648.512 609.596,648.568 610.343,648.596 611.132,647.75 611.878,637.016 612.625,640.966 613.414,644.516 614.16,646.57 614.906,647.597 615.696,648.11 616.442,648.367 617.232,648.496 617.978,648.56 618.724,648.592 619.514,648.588 620.26,646.865 621.05,647.745 621.796,648.184 622.542,648.404 623.332,648.514 624.078,648.569 624.824,648.597 625.614,648.61 626.36,648.617 627.15,648.621 627.896,648.622 628.642,648.623 629.432,648.624 630.178,647.539 630.968,647.604 631.714,648.114 632.46,648.369 633.25,648.497 633.996,648.56 634.742,648.592 635.532,648.608 636.278,648.616 637.068,648.62 637.814,648.622 638.56,648.623 639.35,648.624 640.096,648.624 640.886,648.624 641.632,648.624 642.378,648.368 643.168,648.496 643.914,648.56 644.66,648.592 645.45,648.608 646.196,648.616 646.986,648.62 647.732,648.622 648.478,648.623 649.268,648.624 650.014,648.624 650.76,648.624 651.55,648.624 652.296,648.624 653.086,648.624 653.832,648.624 654.578,648.624 655.368,648.624 656.114,647.306 656.904,647.499 657.65,646.944 658.396,647.188 659.186,647.097 659.932,646.628 660.678,647.626 661.468,646.574 662.214,647.599 663.004,648.112 663.75,648.368 664.496,648.496 665.286,648.56 666.032,648.592 666.822,647.218 667.568,647.921 668.314,648.273 669.104,648.448 669.85,648.536 670.596,648.58 671.386,648.602 672.132,648.613 672.922,648.619 673.668,648.621 674.414,648.623 675.203,648.623 675.95,644.443 676.739,646.527 677.485,647.576 678.232,648.1 679.021,646.438 679.767,646.166 680.513,646.846 681.303,647.735 682.049,648.18 682.839,648.402 683.585,648.513 684.331,648.568 685.121,648.596 685.867,648.61 686.657,646.532 687.403,647.578 688.149,648.101 688.939,648.363 689.685,645.712 690.431,646.3 691.221,647.462 691.967,647.988 692.757,648.306 693.503,648.465 694.249,648.544 695.039,648.584 695.785,648.604 696.531,648.614 697.321,648.619 698.067,648.622 698.857,648.623 699.603,648.623 700.349,647.331 701.139,647.771 701.885,648.197 702.675,648.411 703.421,644.273 704.167,640.364 704.957,644.494 705.703,646.559 706.449,647.592 707.239,648.108 707.985,648.366 708.775,648.495 709.521,648.427 710.267,648.526 711.057,648.575 711.803,648.599 712.593,648.612 713.339,648.059 714.085,647.013 714.875,647.819 715.621,648.221 716.367,648.423 717.157,648.396 717.903,643.696 718.693,646.16 719.439,647.392 720.185,648.008 720.975,648.27 721.721,635.527 722.511,642.046 723.257,645.335 724.003,646.98 724.793,647.802 725.539,648.213 726.285,648.419 727.075,648.521 727.821,648.573 728.611,648.598 729.357,648.611 730.103,646.436 730.893,647.357 731.639,646.013 732.429,642.592 733.175,572.829 733.921,531.194 734.711,589.513 735.457,466.37 736.203,293.876 736.993,390.174 737.739,507.767 738.529,578.196 739.275,613.41 740.021,540.982 740.81,522.438 741.557,546.53 742.303,498.57 743.092,453.67 743.839,551.153 744.628,599.889 745.374,624.256 746.12,636.44 746.91,642.532 747.656,642.205 748.446,516.078 749.192,582.352 749.938,615.488 750.728,620.253 751.474,567.878 752.22,591.125 753.01,619.874 753.756,634.249 754.546,641.437 755.292,641.205 756.038,644.914 756.828,646.769 757.574,647.697 758.364,647.917 759.11,648.27 759.856,648.447 760.646,648.536 761.392,648.58 762.138,648.602 762.928,648.613 763.674,648.619 764.464,648.39 765.21,648.507 765.956,647.208 766.746,647.916 767.492,648.27 768.282,648.447 769.028,648.536 769.774,648.58 770.564,644.462 771.31,576.236 772.056,612.451 772.846,630.538 773.592,639.581 774.382,644.102 775.128,646.363 775.874,647.494 776.664,595.632 777.41,534.016 778.2,591.073 778.946,619.848 779.692,512.717 780.482,199.39 781.228,92.6343 781.974,345.263 782.764,503.124 783.51,575.872 784.3,612.253 785.046,630.443 785.792,639.537 786.582,644.083 787.328,646.355 788.118,647.491 788.864,647.039 789.61,646.049 790.4,644.441 791.146,646.533 791.892,647.579 792.682,648.102 793.428,648.363 794.218,648.494 794.964,648.559 795.71,648.591 796.5,648.608 797.246,648.243 797.992,645.835 798.782,647.23 799.528,647.927 800.318,648.276 801.064,647.419 801.81,644.344 802.6,646.484 803.346,647.554 804.135,648.089 804.882,642.876 805.628,449.11 806.417,549.004 807.164,598.814 807.91,623.719 808.699,636.172 809.445,638.643 810.235,433.92 810.981,542.345 811.727,595.485 812.517,622.054 813.263,635.339 814.053,641.982 814.799,645.075 815.545,644.977 816.335,646.801 817.081,647.712 817.827,645.284 818.617,645.477 819.363,645.89 820.153,647.257 820.899,643.322 821.645,630.986 822.435,435.915 823.181,385.615 823.971,517.214 824.717,582.919 825.463,615.772 826.253,627.672 826.999,637.307 827.745,642.965 828.535,645.795 829.281,647.209 830.071,647.917 830.817,648.27 831.563,648.447 832.353,648.199 833.099,641.571 833.889,452.405 834.635,550.515 835.381,599.569 836.171,624.097 836.917,636.36 837.663,640.429 838.453,636.146 839.199,607.131 839.989,633.326 840.735,640.975 841.481,639.507 842.271,626.187 843.017,500.839 843.763,502.454 844.553,442.71 845.299,515.07 846.089,580.143 846.835,614.383 847.581,631.504 848.371,622.621 849.117,542.931 849.907,593.573 850.653,621.098 851.399,634.861 852.189,641.743 852.935,645.183 853.681,646.904 854.471,165.01 854.799,54.0653" stroke-linejoin="round" fill="none"/>
   <polyline stroke-width="0.5" stroke-linecap="butt" stroke="#ff0000" points="855.525,54.0653 856.007,275.042 856.753,459.015 857.499,553.82 858.289,601.222 859.035,624.923 859.825,631.298 860.571,639.961 861.317,642.49 862.107,637.335 862.853,642.979 863.599,645.802 864.389,647.213 865.135,647.919 865.925,648.271 866.671,646.695 867.417,646.778 868.207,647.345 868.953,645.206 869.742,646.915 870.489,645.362 871.235,646.993 872.024,647.808 872.771,648.216 873.517,648.42 874.306,645.393 875.052,639.303 875.842,639.767 876.588,599.626 877.334,603.463 878.124,625.967 878.87,637.295 879.66,642.96 880.406,645.792 881.152,647.208 881.942,647.916 882.688,648.27 883.434,647.56 884.224,647.581 884.97,648.103 885.76,648.363 886.506,648.494 887.252,648.559 888.042,644.744 888.788,646.684 889.534,645.99 890.324,647.307 891.07,646.936 891.86,647.78 892.606,648.202 893.352,648.413 894.142,648.281 894.888,648.453 895.678,646.24 896.424,647.432 897.17,648.028 897.96,648.326 898.706,648.475 899.452,648.336 900.242,644.039 900.988,646.112 901.778,647.171 902.524,647.898 903.27,648.261 904.06,648.443 904.806,648.533 905.596,648.579 906.342,648.601 907.088,648.613 907.878,648.618 908.624,647.426 909.37,648.025 910.16,648.325 910.906,647.809 911.696,647.041 912.442,642.378 913.188,645.501 913.978,647.063 914.724,647.843 915.514,648.234 916.26,648.429 917.006,648.526 917.796,648.575 918.542,647.026 919.288,647.825 920.078,648.225 920.824,648.424 921.614,648.524 922.36,648.574 923.106,648.599 923.896,648.612 924.642,648.002 925.432,647.717 926.178,648.171 926.924,645.763 927.714,642.312 928.46,645.468 929.206,647.046 929.996,647.835 930.742,648.23 931.532,648.427 932.278,648.525 933.024,648.575 933.814,648.599 934.56,648.612 935.306,647.759 936.096,647.733 936.842,648.178 937.631,648.401 938.378,648.513 939.124,648.568 939.913,648.596 940.659,648.61 941.449,648.617 942.195,647.612 942.941,647.217 943.731,647.92 944.477,648.272 945.223,648.448 946.013,648.536 946.759,647.028 947.549,644.406 948.295,646.515 949.041,647.57 949.831,648.097 950.577,648.36 951.367,648.492 952.113,648.558 952.859,648.591 953.649,648.608 954.395,648.616 955.141,647.174 955.931,645.656 956.677,647.14 957.467,647.882 958.213,648.253 958.959,648.424 959.749,648.007 960.495,648.316 961.285,648.47 962.031,648.547 962.777,646.546 963.567,647.585 964.313,648.105 965.059,648.364 965.849,648.494 966.595,648.559 967.385,648.592 968.131,648.608 968.877,646.04 969.667,642.186 970.413,641.113 971.203,644.776 971.949,646.087 972.695,646.634 973.485,647.629 974.231,648.127 974.977,648.375 975.767,646.377 976.513,647.501 977.303,648.062 978.049,648.343 978.795,648.484 979.585,648.554 980.331,648.589 981.077,648.607 981.867,648.615 982.613,648.62 983.403,648.622 984.149,648.623 984.895,648.624 985.685,648.624 986.431,648.624 987.221,648.624 987.967,648.624 988.713,648.624 989.503,648.605 990.249,643.149 990.995,644.806 991.785,644.203 992.531,646.414 993.321,647.519 994.067,648.071 994.813,648.348 995.603,648.486 996.349,648.555 997.139,648.59 997.885,639.678 998.631,171.204 999.421,135.232 1000.17,126.469 1000.91,387.677 1001.7,518.151 1002.45,583.387 1003.24,616.006 1003.98,632.315 1004.73,580.503 1005.52,529.636 1006.27,589.13 1007.06,618.877 1007.8,471.878 1008.55,488.131 1009.34,568.299 1010.08,608.461 1010.83,628.543 1011.62,638.583 1012.37,643.604 1013.16,646.114 1013.9,645.21 1014.65,639.203 1015.44,567.225 1016.18,556.647 1016.97,602.634 1017.72,625.629 1018.47,637.127 1019.26,631.793 1020,620.853 1020.75,634.739 1021.54,641.681 1022.28,645.153 1023.07,643.781 1023.82,593.459 1024.57,621.042 1025.36,634.833 1026.1,641.728 1026.85,645.176 1027.64,646.033 1028.38,590.86 1029.17,619.734 1029.92,634.179 1030.67,568.089 1031.46,584.579 1032.2,530.489 1032.99,589.557 1033.74,619.09 1034.48,633.857 1035.27,641.241 1036.02,644.932 1036.77,646.778 1037.56,647.701 1038.3,648.163 1039.09,630.417 1039.84,639.984 1040.58,644.309 1041.37,646.471 1042.12,647.551 1042.91,648.09 1043.66,648.359 1044.4,648.493 1045.19,648.559 1045.94,648.592 1046.68,648.609 1047.47,648.617 1048.22,648.621 1049.01,648.622 1049.76,648.623 1050.5,648.624 1051.29,648.624 1052.04,648.624 1052.83,648.624 1053.57,648.624 1054.32,648.332 1055.11,647.655 1055.86,646.599 1056.6,642.684 1057.39,645.654 1058.14,540.468 1058.93,580.739 1059.67,613.974 1060.42,631.299 1061.21,639.962 1061.96,644.293 1062.75,506.886 1063.49,548.102 1064.24,585.581 1065.03,507.536 1065.77,578.122 1066.52,613.373 1067.31,630.999 1068.06,639.811 1068.85,644.218 1069.59,646.421 1070.34,647.523 1071.13,648.073 1071.87,648.349 1072.62,648.486 1073.41,648.555 1074.16,648.59 1074.95,558.468 1075.69,549.668 1076.44,599.147 1077.23,623.886 1077.97,636.255 1078.76,642.44 1079.51,645.532 1080.26,647.078 1081.05,552.273 1081.79,524.804 1082.54,586.529 1083.33,617.576 1084.07,631.322 1084.86,624.968 1085.61,635.911 1086.36,640.834 1087.15,643.512 1087.89,646.068 1088.68,647.346 1089.43,647.985 1090.17,646.055 1090.96,646.994 1091.71,647.809 1092.46,648.217 1093.25,648.42 1093.99,648.522 1094.78,648.573 1095.53,648.599 1096.27,646.966 1097.06,647.795 1097.81,648.209 1098.6,648.417 1099.34,648.52 1100.09,648.572 1100.88,648.598 1101.63,648.611 1102.37,648.497 1103.16,646.433 1103.91,647.529 1104.7,648.076 1105.44,647.948 1106.19,644.912 1106.98,643.524 1107.73,646.074 1108.52,647.349 1109.26,647.987 1110.01,648.305 1110.8,648.465 1111.54,648.544 1112.29,648.495 1113.08,648.559 1113.83,648.563 1114.62,648.594 1115.36,648.609 1116.11,648.616 1116.9,648.62 1117.64,648.622 1118.39,648.623 1119.18,648.624 1119.93,648.624 1120.72,648.624 1121.46,648.624 1122.21,648.624 1123,648.624 1123.74,641.789 1124.53,645.206 1125.28,646.915 1126.03,647.77 1126.82,648.197 1127.56,648.41 1128.31,648.476 1129.1,645.872 1129.84,646.273 1130.63,647.449 1131.38,648.036 1132.13,648.33 1132.92,648.477 1133.66,648.551 1134.45,648.587 1135.2,648.606 1135.94,646.318 1136.73,645.126 1137.48,646.875 1138.23,647.75 1139.02,648.187 1139.76,645.516 1140.55,638.017 1141.3,641.2 1142.04,644.912 1142.83,641.511 1143.58,645.068 1144.37,644.258 1145.12,646.441 1145.86,646.684 1146.65,642.027 1147.4,645.326 1148.14,646.975 1148.93,647.799 1149.68,648.212 1150.47,648.418 1151.22,648.521 1151.96,641.269 1152.75,644.946 1153.5,646.785 1154.29,647.705 1155.03,648.164 1155.78,648.394 1156.57,648.509 1157.32,642.55 1158.06,642.489 1158.85,645.557 1159.6,647.09 1160.39,647.857 1161.13,646.832 1161.88,647.505 1162.67,640.499 1163.42,643.41 1164.21,638.947 1164.95,627.819 1165.7,637.331 1166.49,642.978 1167.23,645.801 1167.98,647.212 1168.77,647.918 1169.52,648.271 1170.31,648.448 1171.05,648.536 1171.8,647.141 1172.59,646.827 1173.33,645.248 1174.08,646.936 1174.87,647.78 1175.62,648.202 1176.41,648.413 1177.15,646.444 1177.9,647.009 1178.69,647.547 1179.43,648.086 1180.22,648.355 1180.97,648.49 1181.72,648.339 1182.51,648.482 1183.25,648.553 1184,646.98 1184.79,646.689 1185.53,647.656 1186.32,648.14 1187.07,648.382 1187.82,648.503 1188.61,648.209 1189.35,648.004 1190.14,648.314 1190.89,648.469 1191.63,648.043 1192.42,648.334 1193.17,648.479 1193.92,648.552 1194.71,648.251 1195.45,648.065 1196.24,648.344 1196.99,648.484 1197.73,648.554 1198.52,648.589 1199.27,648.607 1200.06,648.615 1200.81,648.62 1201.55,648.622 1202.34,645.688 1203.09,646.323 1203.83,647.473 1204.62,647.29 1205.37,637.45 1206.16,643.037 1206.91,645.831 1207.65,647.227 1208.44,647.926 1209.19,648.275 1209.98,638.095 1210.72,634.402 1211.47,641.513 1212.26,645.069 1213.01,646.846 1213.75,647.735 1214.54,648.18 1215.29,648.402 1216.08,648.513 1216.82,648.568 1217.57,648.596 1218.36,648.61 1219.11,648.617 1219.85,648.621 1220.64,648.622 1221.39,636.893 1222.18,642.754 1222.92,645.689 1223.67,646.284 1224.46,580.146 1225.21,547.797 1226,598.206 1226.74,623.415 1227.49,610.723 1228.28,628.723 1229.02,638.673 1229.77,643.649 1230.56,646.136 1231.31,647.38 1232.09,648.002 1232.84,648.313 1233.59,647.508 1234.38,647.82 1235.12,648.222 1235.91,648.423 1236.66,648.523 1237.41,648.574 1238.19,648.599 1238.94,648.612 1239.69,648.618 1240.48,648.621 1241.22,648.622 1242.01,648.623 1242.76,645.188 1243.5,644.375 1244.29,646.5 1245.04,647.562 1245.83,648.093 1246.58,648.359 1247.32,648.491 1248.11,648.558 1248.86,648.591 1249.6,648.607 1250.39,648.616 1251.14,645.878 1251.93,647.251 1252.68,647.938 1253.42,646.766 1254.21,645.111 1254.96,644.353 1255.75,626.336 1256.49,636.219 1257.24,587.415 1258.03,561.161 1258.78,604.993 1259.52,626.809 1260.31,637.716 1261.06,643.17 1261.85,645.897 1262.59,646.857 1263.34,592.581 1264.13,633.699 1264.88,641.162 1265.62,644.893 1266.41,646.758 1267.16,647.691 1267.95,648.158 1268.69,648.391 1269.44,648.507 1270.23,521.806 1270.98,413.769 1271.77,531.133 1272.51,565.75 1273.26,538.573 1274.05,593.599 1274.79,621.111 1275.54,634.868 1276.33,641.746 1277.08,645.185 1277.87,646.905 1278.61,647.764 1279.36,648.194 1280.15,630.499 1280.89,633.955 1281.68,641.29 1282.43,621.153 1283.18,634.884 1283.97,641.754 1284.71,597.041 1285.46,622.64 1286.25,635.632 1286.99,642.128 1287.78,645.376 1288.53,647 1289.28,644.676 1290.07,631.017 1290.81,639.714 1291.6,644.169 1292.35,521.656 1293.09,585.148 1293.88,589.006 1294.63,512.474 1295.38,560.057 1296.17,604.341 1296.91,597.378 1297.7,608.944 1298.45,608.637 1299.19,628.632 1299.98,638.628 1300.73,643.626" stroke-linejoin="round" fill="none"/>
   <polyline stroke-width="2" stroke-linecap="butt" stroke="#0000ff" points="1021.54,648.624 1021.54,54.0654" stroke-linejoin="round" stroke-dasharray="8,8,8,8" fill="none"/>
   <polyline stroke-width="2" stroke-linecap="butt" stroke="#00ff00" points="464.647,648.624 464.647,54.0654" stroke-linejoin="round" stroke-dasharray="8,8,8,8" fill="none"/>
   <text font-style="normal" font-family="FreeSans" font-size="16" xml:space="preserve" font-weight="normal" transform="translate(679.339,102.858) rotate(-0,64.5,-18.5)">
    <tspan y="-24" fill="rgb(0,0,0)" x="0 11 20 23 27 36 41 50 54 58 67 76 80 89 98 103 107 116 125 ">Calibration period </tspan>
    <tspan y="-1" fill="rgb(0,0,0)" x="22 33 45 55 59 68 72 81 85 94 103 ">KGE = 0.79 </tspan>
   </text>
   <text font-style="normal" font-family="FreeSans" font-size="16" xml:space="preserve" font-weight="normal" transform="translate(1097.62,102.858) rotate(-0,63.5,-18.5)">
    <tspan y="-24" fill="rgb(0,0,0)" x="0 10 18 27 30 39 48 52 56 65 74 78 87 96 101 105 114 123 ">Evaluation period </tspan>
    <tspan y="-1" fill="rgb(0,0,0)" x="23 34 46 56 60 69 73 82 86 95 ">KGE = 0.11</tspan>
   </text>
  </g>
  <clipPath id="cp001438728">
   <polygon points="0,728 1438,728 1438,0 0,0"/>
  </clipPath>
  <g clip-path="url(#cp001438728)">
   <polygon points="194.965,141.154 315.007,141.154 315.007,62.6699 194.965,62.6699" shape-rendering="crispEdges" fill="#ffffff"/>
   <polyline stroke-width="0.5" stroke-linecap="square" stroke="#262626" points="194.965,141.154 315.007,141.154" stroke-linejoin="miter" stroke-dasharray="16,0" fill="none"/>
   <polyline stroke-width="0.5" stroke-linecap="square" stroke="#262626" points="194.965,62.6699 315.007,62.6699" stroke-linejoin="miter" stroke-dasharray="16,0" fill="none"/>
   <polyline stroke-width="0.5" stroke-linecap="square" stroke="#262626" points="194.965,141.154 194.965,62.6699" stroke-linejoin="miter" stroke-dasharray="16,0" fill="none"/>
   <polyline stroke-width="0.5" stroke-linecap="square" stroke="#262626" points="315.007,141.154 315.007,62.6699" stroke-linejoin="miter" stroke-dasharray="16,0" fill="none"/>
   <polyline stroke-width="0.5" stroke-linecap="butt" stroke="#000000" points="198.97,74.1751 218.996,74.1751" stroke-linejoin="round" fill="none"/>
   <text font-style="normal" font-family="FreeSans" font-size="14.4" xml:space="preserve" font-weight="normal" transform="translate(223.001,81.6751) rotate(-0,-0,-7.5)">
    <tspan y="-3" fill="rgb(0,0,0)" x="0 ">Q</tspan>
    <tspan y="-0" font-size="10.08" fill="rgb(0,0,0)" x="11 16 22 ">obs</tspan>
   </text>
   <polyline stroke-width="0.5" stroke-linecap="butt" stroke="#ff0000" points="198.97,93.1804 218.996,93.1804" stroke-linejoin="round" fill="none"/>
   <text font-style="normal" font-family="FreeSans" font-size="14.4" xml:space="preserve" font-weight="normal" transform="translate(223.001,100.68) rotate(-0,-0,-7.5)">
    <tspan y="-3" fill="rgb(0,0,0)" x="0 ">Q</tspan>
    <tspan y="-0" font-size="10.08" fill="rgb(0,0,0)" x="11 16 18 ">sim</tspan>
   </text>
   <polyline stroke-width="2" stroke-linecap="butt" stroke="#0000ff" points="198.97,111.414 218.996,111.414" stroke-linejoin="round" stroke-dasharray="8,8,8,8" fill="none"/>
   <text font-style="normal" font-family="FreeSans" font-size="14.4" xml:space="preserve" font-weight="normal" transform="translate(223.001,117.414) rotate(-0,-0,-6)">
    <tspan y="-0" fill="rgb(0,0,0)" x="0 10 18 21 25 29 33 37 46 53 61 ">Cal // Eval</tspan>
   </text>
   <polyline stroke-width="2" stroke-linecap="butt" stroke="#00ff00" points="198.97,129.649 218.996,129.649" stroke-linejoin="round" stroke-dasharray="8,8,8,8" fill="none"/>
   <text font-style="normal" font-family="FreeSans" font-size="14.4" xml:space="preserve" font-weight="normal" transform="translate(223.001,137.149) rotate(-0,-0,-7.5)">
    <tspan y="-3" fill="rgb(0,0,0)" x="0 10 18 23 35 43 51 55 59 63 67 77 85 ">warmup // Cal</tspan>
   </text>
  </g>
 </g>
</svg>
